<svg width="103" height="28" viewBox="0 0 103 28" fill="none" xmlns="http://www.w3.org/2000/svg">
<path d="M22 14C22 19.52 17.52 24 12 24C6.48 24 2 19.52 2 14C2 8.48 6.48 4 12 4C17.52 4 22 8.48 22 14Z" stroke="#000706" stroke-width="1.5" stroke-linecap="round" stroke-linejoin="round"/>
<path d="M15.71 17.1798L12.61 15.3298C12.07 15.0098 11.63 14.2398 11.63 13.6098V9.50977" stroke="#000706" stroke-width="1.5" stroke-linecap="round" stroke-linejoin="round"/>
<path d="M32.8411 9V6.42H37.6611V21H34.7811V9H32.8411ZM49.2672 12.68V15.04H40.7872V12.68H49.2672ZM52.1273 10.26C52.194 8.92667 52.6607 7.9 53.5273 7.18C54.4073 6.44667 55.5607 6.08 56.9873 6.08C57.9607 6.08 58.794 6.25333 59.4873 6.6C60.1807 6.93333 60.7007 7.39333 61.0473 7.98C61.4073 8.55333 61.5873 9.20667 61.5873 9.94C61.5873 10.78 61.3673 11.4933 60.9273 12.08C60.5007 12.6533 59.9873 13.04 59.3873 13.24V13.32C60.1607 13.56 60.7607 13.9867 61.1873 14.6C61.6273 15.2133 61.8473 16 61.8473 16.96C61.8473 17.76 61.6607 18.4733 61.2873 19.1C60.9273 19.7267 60.3873 20.22 59.6673 20.58C58.9607 20.9267 58.1073 21.1 57.1073 21.1C55.6007 21.1 54.374 20.72 53.4273 19.96C52.4807 19.2 51.9807 18.08 51.9273 16.6H54.6473C54.674 17.2533 54.894 17.78 55.3073 18.18C55.734 18.5667 56.314 18.76 57.0473 18.76C57.7273 18.76 58.2473 18.5733 58.6073 18.2C58.9807 17.8133 59.1673 17.32 59.1673 16.72C59.1673 15.92 58.914 15.3467 58.4073 15C57.9007 14.6533 57.114 14.48 56.0473 14.48H55.4673V12.18H56.0473C57.9407 12.18 58.8873 11.5467 58.8873 10.28C58.8873 9.70667 58.714 9.26 58.3673 8.94C58.034 8.62 57.5473 8.46 56.9073 8.46C56.2807 8.46 55.794 8.63333 55.4473 8.98C55.114 9.31333 54.9207 9.74 54.8673 10.26H52.1273Z" fill="#000706"/>
<path d="M69.4767 7.812L65.6407 23.38H64.3807L68.2027 7.812H69.4767ZM72.9289 14.378V18.9C72.9289 19.2733 73.0082 19.5393 73.1669 19.698C73.3255 19.8473 73.6009 19.922 73.9929 19.922H74.9309V21H73.7829C73.0735 21 72.5415 20.8367 72.1869 20.51C71.8322 20.1833 71.6549 19.6467 71.6549 18.9V14.378H70.6609V13.328H71.6549V11.396H72.9289V13.328H74.9309V14.378H72.9289ZM75.9985 17.136C75.9985 16.352 76.1572 15.666 76.4745 15.078C76.7918 14.4807 77.2258 14.0187 77.7765 13.692C78.3365 13.3653 78.9572 13.202 79.6385 13.202C80.3105 13.202 80.8938 13.3467 81.3885 13.636C81.8832 13.9253 82.2518 14.2893 82.4945 14.728V13.328H83.7825V21H82.4945V19.572C82.2425 20.02 81.8645 20.3933 81.3605 20.692C80.8658 20.9813 80.2872 21.126 79.6245 21.126C78.9432 21.126 78.3272 20.958 77.7765 20.622C77.2258 20.286 76.7918 19.8147 76.4745 19.208C76.1572 18.6013 75.9985 17.9107 75.9985 17.136ZM82.4945 17.15C82.4945 16.5713 82.3778 16.0673 82.1445 15.638C81.9112 15.2087 81.5938 14.882 81.1925 14.658C80.8005 14.4247 80.3665 14.308 79.8905 14.308C79.4145 14.308 78.9805 14.42 78.5885 14.644C78.1965 14.868 77.8838 15.1947 77.6505 15.624C77.4172 16.0533 77.3005 16.5573 77.3005 17.136C77.3005 17.724 77.4172 18.2373 77.6505 18.676C77.8838 19.1053 78.1965 19.4367 78.5885 19.67C78.9805 19.894 79.4145 20.006 79.8905 20.006C80.3665 20.006 80.8005 19.894 81.1925 19.67C81.5938 19.4367 81.9112 19.1053 82.1445 18.676C82.3778 18.2373 82.4945 17.7287 82.4945 17.15ZM89.0994 13.202C89.7621 13.202 90.3408 13.3467 90.8354 13.636C91.3394 13.9253 91.7128 14.2893 91.9554 14.728V13.328H93.2434V21.168C93.2434 21.868 93.0941 22.4887 92.7954 23.03C92.4968 23.5807 92.0674 24.01 91.5074 24.318C90.9568 24.626 90.3128 24.78 89.5754 24.78C88.5674 24.78 87.7274 24.542 87.0554 24.066C86.3834 23.59 85.9868 22.9413 85.8654 22.12H87.1254C87.2654 22.5867 87.5548 22.96 87.9934 23.24C88.4321 23.5293 88.9594 23.674 89.5754 23.674C90.2754 23.674 90.8448 23.4547 91.2834 23.016C91.7314 22.5773 91.9554 21.9613 91.9554 21.168V19.558C91.7034 20.006 91.3301 20.3793 90.8354 20.678C90.3408 20.9767 89.7621 21.126 89.0994 21.126C88.4181 21.126 87.7974 20.958 87.2374 20.622C86.6868 20.286 86.2528 19.8147 85.9354 19.208C85.6181 18.6013 85.4594 17.9107 85.4594 17.136C85.4594 16.352 85.6181 15.666 85.9354 15.078C86.2528 14.4807 86.6868 14.0187 87.2374 13.692C87.7974 13.3653 88.4181 13.202 89.0994 13.202ZM91.9554 17.15C91.9554 16.5713 91.8388 16.0673 91.6054 15.638C91.3721 15.2087 91.0548 14.882 90.6534 14.658C90.2614 14.4247 89.8274 14.308 89.3514 14.308C88.8754 14.308 88.4414 14.42 88.0494 14.644C87.6574 14.868 87.3448 15.1947 87.1114 15.624C86.8781 16.0533 86.7614 16.5573 86.7614 17.136C86.7614 17.724 86.8781 18.2373 87.1114 18.676C87.3448 19.1053 87.6574 19.4367 88.0494 19.67C88.4414 19.894 88.8754 20.006 89.3514 20.006C89.8274 20.006 90.2614 19.894 90.6534 19.67C91.0548 19.4367 91.3721 19.1053 91.6054 18.676C91.8388 18.2373 91.9554 17.7287 91.9554 17.15ZM102.396 16.87C102.396 17.1127 102.382 17.3693 102.354 17.64H96.2224C96.269 18.396 96.5257 18.9887 96.9924 19.418C97.4684 19.838 98.0424 20.048 98.7144 20.048C99.265 20.048 99.7224 19.922 100.086 19.67C100.46 19.4087 100.721 19.0633 100.87 18.634H102.242C102.037 19.3713 101.626 19.9733 101.01 20.44C100.394 20.8973 99.629 21.126 98.7144 21.126C97.9864 21.126 97.333 20.9627 96.7544 20.636C96.185 20.3093 95.737 19.8473 95.4104 19.25C95.0837 18.6433 94.9204 17.9433 94.9204 17.15C94.9204 16.3567 95.079 15.6613 95.3964 15.064C95.7137 14.4667 96.157 14.0093 96.7264 13.692C97.305 13.3653 97.9677 13.202 98.7144 13.202C99.4424 13.202 100.086 13.3607 100.646 13.678C101.206 13.9953 101.636 14.434 101.934 14.994C102.242 15.5447 102.396 16.17 102.396 16.87ZM101.08 16.604C101.08 16.1187 100.973 15.7033 100.758 15.358C100.544 15.0033 100.25 14.7373 99.8764 14.56C99.5124 14.3733 99.1064 14.28 98.6584 14.28C98.0144 14.28 97.4637 14.4853 97.0064 14.896C96.5584 15.3067 96.3017 15.876 96.2364 16.604H101.08Z" fill="#4D4F4F"/>
</svg>
