<svg width="81" height="40" viewBox="0 0 81 40" fill="none" xmlns="http://www.w3.org/2000/svg">
<rect x="0.333374" width="80" height="40" rx="3" fill="#F6F5F4" fill-opacity="0.7"/>
<path fill-rule="evenodd" clip-rule="evenodd" d="M30.479 29.9996H23.8803V29.4704H26.4521L33.8156 15.2587H34.888L41.8542 29.4856H44.3969V29.9996H34.6088V29.4704H37.857L35.9465 25.6051H29.2152L27.3047 29.4704H30.4645L30.479 29.9996ZM35.6819 25.0468L32.7722 19.0362L29.5828 25.0468H35.6819ZM45.6606 17.2874L47.4537 17.2723C49.056 17.2723 50.0552 16.2731 50.6134 15.1855H53.3034L53.2737 26.3991H56.7864V29.9852L45.6164 29.9707L45.6316 26.3845L49.32 26.3991V20.4472L45.6606 20.4321V17.2874Z" fill="#000706" stroke="#000706" stroke-width="0.48099" stroke-miterlimit="2.613"/>
<path fill-rule="evenodd" clip-rule="evenodd" d="M34.3884 13.9386C36.8137 11.6163 39.9147 9.98559 43.7211 10.0001C47.6299 9.98559 50.9955 11.4401 53.3179 13.9089L52.6414 13.924C50.5989 12.2042 47.292 11.1318 43.7502 11.1318C39.9437 11.1318 37.137 12.3369 34.9909 13.9385L34.3884 13.9386Z" fill="#EFC031" stroke="#EFC031" stroke-width="0.48099" stroke-miterlimit="2.613"/>
</svg>
