<svg width="81" height="40" viewBox="0 0 81 40" fill="none" xmlns="http://www.w3.org/2000/svg">
<rect x="0.333374" width="80" height="40" rx="3" fill="#F6F5F4" fill-opacity="0.7"/>
<path d="M39.2741 21.28H36.2501V24.384H34.1381V21.28H31.1141V19.328H34.1381V16.224H36.2501V19.328H39.2741V21.28ZM43.3834 19.824C42.3167 19.2693 41.7834 18.4107 41.7834 17.248C41.7834 16.672 41.9274 16.1493 42.2154 15.68C42.514 15.2 42.9567 14.8213 43.5434 14.544C44.1407 14.256 44.866 14.112 45.7194 14.112C46.5727 14.112 47.2927 14.256 47.8794 14.544C48.4767 14.8213 48.9194 15.2 49.2074 15.68C49.506 16.1493 49.6554 16.672 49.6554 17.248C49.6554 17.8347 49.5114 18.352 49.2234 18.8C48.9354 19.2373 48.5514 19.5787 48.0714 19.824C48.658 20.08 49.1167 20.4533 49.4474 20.944C49.778 21.4347 49.9434 22.016 49.9434 22.688C49.9434 23.4133 49.7567 24.048 49.3834 24.592C49.0207 25.1253 48.5194 25.536 47.8794 25.824C47.2394 26.112 46.5194 26.256 45.7194 26.256C44.9194 26.256 44.1994 26.112 43.5594 25.824C42.93 25.536 42.4287 25.1253 42.0554 24.592C41.6927 24.048 41.5114 23.4133 41.5114 22.688C41.5114 22.016 41.6767 21.4347 42.0074 20.944C42.338 20.4427 42.7967 20.0693 43.3834 19.824ZM47.4794 17.568C47.4794 17.0453 47.3194 16.64 46.9994 16.352C46.69 16.064 46.2634 15.92 45.7194 15.92C45.186 15.92 44.7594 16.064 44.4394 16.352C44.13 16.64 43.9754 17.0507 43.9754 17.584C43.9754 18.064 44.1354 18.448 44.4554 18.736C44.786 19.024 45.2074 19.168 45.7194 19.168C46.2314 19.168 46.6527 19.024 46.9834 18.736C47.314 18.4373 47.4794 18.048 47.4794 17.568ZM45.7194 20.8C45.1114 20.8 44.6154 20.9547 44.2314 21.264C43.858 21.5733 43.6714 22.016 43.6714 22.592C43.6714 23.1253 43.8527 23.5627 44.2154 23.904C44.5887 24.2347 45.09 24.4 45.7194 24.4C46.3487 24.4 46.8447 24.2293 47.2074 23.888C47.57 23.5467 47.7514 23.1147 47.7514 22.592C47.7514 22.0267 47.5647 21.5893 47.1914 21.28C46.818 20.96 46.3274 20.8 45.7194 20.8Z" fill="#0A514C"/>
</svg>
