<svg width="81" height="40" viewBox="0 0 81 40" fill="none" xmlns="http://www.w3.org/2000/svg">
<rect x="0.333374" width="80" height="40" rx="3" fill="#F6F5F4" fill-opacity="0.7"/>
<path d="M22.7642 12.9423C24.5346 12.6194 26.368 12.5986 28.1383 12.9358C28.2956 12.9715 28.4557 12.9979 28.6157 13.028C28.7457 13.077 28.8851 13.0949 29.0225 13.1118C29.0254 13.125 29.032 13.1505 29.0348 13.1636C29.1789 13.1881 29.321 13.223 29.4614 13.2663C29.7589 13.3727 30.0565 13.48 30.355 13.5846L30.3691 13.675C30.3993 13.6637 30.4605 13.6411 30.4915 13.6288C30.5914 13.7296 30.7138 13.7861 30.8597 13.8002C30.355 13.8209 29.9105 14.0987 29.4105 14.1486V14.2277C29.3286 14.223 29.1647 14.2145 29.0828 14.2098C27.3031 13.7635 25.3981 13.7211 23.6183 14.1929C23.5731 14.2004 23.4827 14.2174 23.4375 14.2249C23.2793 14.2814 23.1202 14.3351 22.961 14.3869C22.8537 14.417 22.7473 14.45 22.6456 14.4961L22.5853 14.5027C22.5034 14.5328 22.3405 14.594 22.2595 14.6242C22.2585 14.6421 22.2557 14.6769 22.2548 14.6938C22.1936 14.6986 22.0721 14.7089 22.0109 14.7136C21.9384 14.8342 21.8018 14.8624 21.6775 14.8982L21.6841 14.9989C21.6418 14.9886 21.5561 14.966 21.5137 14.9556L21.4873 15.0818C21.4459 15.0752 21.3621 15.063 21.3206 15.0564L21.3244 15.1788L21.2001 15.1449L21.1954 15.273C21.1653 15.2654 21.1041 15.2513 21.073 15.2447C20.7735 15.5432 20.3658 15.725 20.1285 16.0875C20.1021 16.0903 20.0475 16.0969 20.0202 16.0998C19.9929 16.2429 19.8865 16.3041 19.7537 16.3239C19.6765 15.9811 19.5767 15.644 19.4496 15.3163C19.3582 15.0799 19.2678 14.8417 19.217 14.5921L19.1454 14.6091C19.1473 14.5545 19.1492 14.4462 19.151 14.3916L19.2622 14.4066C19.2527 14.3643 19.233 14.2805 19.2236 14.2381C19.2989 14.2324 19.4514 14.2221 19.5268 14.2164L19.4948 14.1232C19.604 14.0846 19.7132 14.0479 19.8234 14.0111L19.8055 13.9066C19.8488 13.9217 19.9355 13.9499 19.9788 13.965L19.9995 13.8341C20.0428 13.8407 20.1313 13.852 20.1746 13.8586L20.1897 13.7268C20.2236 13.7343 20.2914 13.7494 20.3253 13.7569C20.4562 13.6853 20.5871 13.6156 20.7142 13.5365L20.7735 13.577C20.8922 13.4292 21.1031 13.4631 21.267 13.4151L20.9835 13.3943C21.2208 13.3934 21.4911 13.1872 21.7105 13.3444C21.6926 13.3134 21.6568 13.2493 21.6389 13.2173C21.7632 13.19 21.8866 13.1599 22.0099 13.1269C22.1371 13.0958 22.2661 13.0666 22.3932 13.0299C22.5166 13.0007 22.6409 12.9734 22.7642 12.9423Z" fill="#FB0202"/>
<path d="M46.7871 13.2493C47.9058 13.0572 49.0443 12.9725 50.1799 13.012C50.8777 13.0384 51.5632 13.2145 52.1998 13.4979L52.212 13.5676C52.2422 13.5657 52.3034 13.562 52.3335 13.5601C52.5736 13.7776 52.8731 13.9339 53.0642 14.2014C53.101 14.239 53.1735 14.3153 53.2102 14.353C53.2705 14.449 53.3307 14.5451 53.3948 14.6411C53.8524 15.3944 53.8967 16.3163 53.7639 17.1667C53.6622 17.7863 53.3562 18.3579 52.9277 18.8127C52.7639 18.9568 52.5962 19.0971 52.423 19.2299C52.2996 19.3099 52.1753 19.3881 52.0519 19.469C51.9248 19.519 51.7977 19.5707 51.6715 19.6225C50.8042 19.9907 49.8362 20.0585 48.9068 19.9841C48.9002 21.3072 48.9011 22.6312 48.9058 23.9551C48.1996 23.9768 47.4933 23.9599 46.788 23.9664C46.7965 20.3938 46.7984 16.822 46.7871 13.2493ZM48.9058 14.8323C48.9049 15.9397 48.8955 17.048 48.9087 18.1554C49.7194 18.2053 50.6074 18.2016 51.2788 17.6714C51.325 17.6074 51.373 17.5443 51.422 17.4821C51.8448 16.8795 51.8542 15.9896 51.4182 15.3916C51.2967 15.2824 51.1715 15.1797 51.0415 15.0828C50.3748 14.7494 49.6234 14.8407 48.9058 14.8323Z" fill="#000706"/>
<path d="M16.1132 13.0676C16.8327 13.0864 17.553 13.0676 18.2725 13.0845C18.2828 13.1429 18.3045 13.2597 18.3148 13.3181C18.6388 14.2287 18.9637 15.1402 19.2575 16.0621C19.3337 16.2806 19.4138 16.4981 19.4995 16.7137C19.6426 17.1846 19.8121 17.6469 19.9722 18.1121C20.2481 18.9332 20.5127 19.7581 20.8225 20.567C20.8329 20.6207 20.8545 20.7281 20.8658 20.7817C21.2576 21.8373 21.6003 22.9108 21.9676 23.9749C21.2086 23.9486 20.4477 23.9853 19.6897 23.9486C19.5955 23.4269 19.361 22.9466 19.2132 22.44C19.1821 22.3477 19.1529 22.2554 19.1237 22.1622C18.9655 21.7121 18.8026 21.2629 18.6708 20.8034C17.6387 20.7761 16.6038 20.7733 15.5727 20.8034C15.5661 20.8646 15.5548 20.988 15.5492 21.0492C15.5002 21.1678 15.4541 21.2874 15.4079 21.407C15.2808 21.8618 15.1169 22.3053 14.9729 22.7545C14.8994 22.9372 14.8344 23.1237 14.7826 23.3148C14.6546 23.521 14.7337 23.9627 14.4135 23.9636C13.7204 23.9617 13.0255 23.9881 12.3334 23.941C12.469 23.7913 12.5019 23.587 12.5678 23.4024C12.726 22.9287 12.905 22.4617 13.05 21.9842C13.1281 21.8016 13.1959 21.6142 13.2487 21.4221C13.292 21.3015 13.3353 21.1819 13.3805 21.0623C13.5067 20.6395 13.6724 20.229 13.7977 19.8052C13.9295 19.4286 14.0802 19.0585 14.1913 18.6743C14.2911 18.3955 14.3749 18.1112 14.4879 17.8371C14.5246 17.7175 14.5623 17.5989 14.6019 17.4812C14.8231 16.7806 15.1028 16.0998 15.3062 15.3944C15.3524 15.273 15.3985 15.1515 15.4446 15.03C15.4927 14.8389 15.5595 14.6534 15.632 14.4697C15.6603 14.3765 15.6904 14.2833 15.7215 14.1901C15.843 13.8454 15.9889 13.5055 16.0567 13.1448C16.0699 13.1646 16.0963 13.2022 16.1095 13.2211C16.1104 13.1834 16.1123 13.1062 16.1132 13.0676ZM16.9475 16.7184C16.7564 17.2119 16.5972 17.7157 16.4277 18.2166C16.3477 18.4746 16.2253 18.7223 16.1989 18.9944C16.8562 18.9492 17.522 19.0566 18.1727 18.9314C17.8676 18.4662 17.795 17.888 17.5662 17.3833C17.5549 17.3286 17.5304 17.2194 17.5182 17.1648C17.3515 16.8107 17.2564 16.4293 17.1425 16.0574C17.0794 16.2777 17.0088 16.4971 16.9475 16.7184Z" fill="#000706"/>
<path d="M29.4491 14.5404C30.0132 14.3953 30.5622 14.1948 31.129 14.0573C31.1262 14.6778 31.1375 15.2984 31.1093 15.918C31.7421 15.9208 32.3739 15.9208 33.0058 15.9171C33.0303 16.516 33.0133 17.1149 33.0143 17.7147C32.3815 17.7091 31.7487 17.711 31.1159 17.7128C31.1338 18.9521 31.114 20.1922 31.1262 21.4315C31.1159 21.7196 31.2129 22.0002 31.388 22.2272C31.857 22.2592 32.3485 22.2517 32.7723 22.0228C32.7958 22.0577 32.8419 22.1283 32.8655 22.1632C32.8768 22.7272 32.9465 23.2875 32.9399 23.8525C32.0057 24.1604 30.8955 24.3102 30.0207 23.7574C29.8823 23.65 29.7486 23.538 29.6214 23.4184C29.5339 23.2884 29.4435 23.1604 29.3455 23.0389C29.3333 22.9852 29.3079 22.8788 29.2947 22.8261C29.0941 22.4155 29.0696 21.9494 29.0376 21.5012C29.0329 20.2384 29.0291 18.9766 29.0395 17.7138C28.6619 17.7175 28.2852 17.7175 27.9085 17.7157C27.8982 17.1158 27.9151 16.515 27.9057 15.9142C28.2814 15.918 28.6581 15.9161 29.0348 15.9227C29.0376 15.498 29.0291 15.0724 29.0414 14.6477C29.1779 14.6166 29.3145 14.5827 29.4491 14.5404Z" fill="#000706"/>
<path d="M23.8923 16.1139C24.7314 15.6732 25.7389 15.7118 26.6335 15.9481C26.8774 16.0423 27.1204 16.1393 27.3586 16.2485C27.353 16.2787 27.3407 16.338 27.3351 16.3681C27.6477 16.1996 27.5611 16.6393 27.5178 16.7994C27.3548 17.2731 27.2315 17.7627 27.0234 18.2195C26.9584 18.1488 26.8944 18.0791 26.8303 18.0095C26.5789 17.8805 26.3284 17.7477 26.0714 17.63C25.7182 17.5537 25.3576 17.5236 24.9979 17.5518C24.9112 17.6083 24.8227 17.6629 24.7332 17.7166C24.6965 17.7524 24.6221 17.8249 24.5845 17.8616C24.6071 18.0791 24.447 18.5594 24.8425 18.4841C24.7926 18.4888 24.6928 18.4991 24.6428 18.5038C24.8359 18.6027 25.0242 18.711 25.2144 18.8165C25.4941 18.9408 25.7804 19.05 26.0601 19.1724C26.2361 19.2534 26.4132 19.3353 26.5902 19.4135L26.5921 19.4643C26.9057 19.6404 27.1835 19.8758 27.4066 20.1583C27.4613 20.2695 27.5253 20.3759 27.5931 20.4795C27.8765 21.0576 27.8878 21.7234 27.7277 22.3383C27.6458 22.504 27.5705 22.6717 27.4886 22.8374C27.4104 22.9146 27.3473 23.0031 27.3002 23.102C27.1562 23.2536 27.0017 23.393 26.8379 23.521C26.739 23.5794 26.6429 23.6406 26.5488 23.7056C25.3811 24.3177 23.93 24.2386 22.7444 23.7141C22.7021 23.6887 22.6173 23.6369 22.574 23.6105C22.4676 23.5691 22.3602 23.5295 22.2529 23.4928C22.2294 23.2348 22.3141 22.9899 22.4102 22.7555C22.5128 22.4061 22.6597 22.069 22.7294 21.7102C22.8104 21.7347 22.9714 21.7846 23.0524 21.81C23.2624 21.9409 23.4808 22.0596 23.7144 22.1453C24.3425 22.3713 25.173 22.5426 25.6994 22.0115C25.8802 21.5878 25.658 21.0454 25.1805 20.9663L25.1824 20.9117C24.7549 20.7422 24.3114 20.6009 23.9131 20.3665C23.8697 20.3439 23.785 20.2977 23.7417 20.2751C23.4573 20.0868 23.1494 19.9032 22.9714 19.6018L22.9337 19.599C22.9017 19.5613 22.8386 19.4869 22.8066 19.4493C22.8057 19.4295 22.8047 19.3909 22.8038 19.3711C22.299 18.6667 22.4337 17.6761 22.8537 16.9623L22.9243 16.952L22.8961 16.8474H22.9733C23.0712 16.6902 23.1936 16.5499 23.349 16.4482C23.4629 16.3625 23.5788 16.2787 23.6899 16.1883L23.7577 16.2062C23.7643 16.1779 23.7784 16.1214 23.785 16.0932L23.8923 16.1139Z" fill="#000706"/>
<path d="M36.4984 15.9199C37.0079 15.7259 37.5578 15.7777 38.088 15.8333C38.088 16.5744 38.1416 17.3202 38.0541 18.0575C38.0324 18.0151 37.99 17.9294 37.9693 17.887C37.4872 17.7703 36.9514 17.7524 36.5107 18.0123C36.279 18.2279 36.0634 18.469 35.9702 18.7788C35.8751 19.0528 35.8261 19.3429 35.8308 19.6338C35.8233 21.0812 35.828 22.5295 35.828 23.9768C35.1067 23.942 34.3844 23.9985 33.665 23.942C33.7431 23.5474 33.7007 23.1425 33.7215 22.7432C33.7083 20.4672 33.7676 18.1903 33.6329 15.9171C34.2893 15.9227 34.9447 15.9124 35.601 15.9227C35.6048 16.1318 35.6142 16.3408 35.6274 16.5489C35.7074 16.4548 35.8685 16.2664 35.9494 16.1723C35.9786 16.1817 36.038 16.2005 36.0681 16.2099L36.0813 16.0979L36.1566 16.0951C36.2658 16.0273 36.3817 15.9736 36.4984 15.9199Z" fill="#000706"/>
<path d="M41.1192 15.8464C41.9375 15.7193 42.802 15.7523 43.5704 16.0856C43.6721 16.1308 43.7738 16.177 43.8764 16.2231C44.1523 16.3823 44.4122 16.5678 44.6495 16.7815C45.7899 17.8626 46.0761 19.567 45.7663 21.0567C45.7249 21.1782 45.6872 21.3025 45.6524 21.4258C45.5808 21.6537 45.4772 21.8694 45.3831 22.0878C45.2465 22.3477 45.0572 22.5737 44.8755 22.8016C44.8124 22.8703 44.7493 22.9381 44.6881 23.0069C44.5459 23.1481 44.3905 23.2743 44.2352 23.4005C43.301 24.022 42.14 24.2668 41.0363 24.0531C40.3847 23.9401 39.7924 23.6274 39.2848 23.2112C39.218 23.1425 39.1521 23.0737 39.0861 23.005C38.9449 22.8289 38.8008 22.6547 38.6567 22.4805C38.4722 22.182 38.313 21.8675 38.1981 21.536C38.1671 21.4061 38.1351 21.277 38.0974 21.1499C38.0682 21.0256 38.039 20.9013 38.007 20.778C37.9411 20.0096 37.9495 19.2214 38.1963 18.4831C38.2273 18.3927 38.2575 18.3023 38.2867 18.2119C38.5729 17.5236 39.0259 16.8964 39.6417 16.467C39.766 16.387 39.8922 16.3088 40.0146 16.2259C40.1013 16.1911 40.1879 16.1563 40.2755 16.1205C40.5476 16.0047 40.8292 15.9086 41.1192 15.8464ZM41.3857 17.6281C41.1164 17.7552 40.8235 17.8861 40.6738 18.1611L40.5985 18.1639L40.6239 18.2731L40.5523 18.2891C40.4873 18.4181 40.4205 18.5462 40.3508 18.6724C40.0513 19.4945 40.0165 20.4295 40.3574 21.2441C40.4054 21.3279 40.4525 21.4117 40.4986 21.4965C40.7086 21.8458 41.0297 22.1302 41.4168 22.2649C41.8565 22.4419 42.349 22.3374 42.7511 22.1151C43.0082 21.9362 43.2088 21.6951 43.3801 21.4362C43.4677 21.246 43.544 21.0501 43.6212 20.8552C43.7653 20.2327 43.7493 19.5905 43.6061 18.9709C43.4178 18.3965 43.0581 17.8428 42.4752 17.614C42.1823 17.5499 41.8829 17.5415 41.5853 17.5537C41.5354 17.5725 41.4356 17.6102 41.3857 17.6281Z" fill="#000706"/>
<path d="M55.4307 16.0329C55.9241 15.8822 56.4345 15.7758 56.9533 15.7815C57.4628 15.789 58.0014 15.7721 58.4685 16.0084C58.4901 16.0065 58.5325 16.0047 58.5542 16.0037C58.8056 16.1365 59.0542 16.2777 59.2811 16.4519C59.3442 16.5179 59.4073 16.5857 59.4704 16.6535C59.5429 16.7392 59.6154 16.8239 59.6936 16.9058C59.8028 17.0847 59.897 17.2731 59.9864 17.4633C60.1625 17.9144 60.2652 18.3937 60.2689 18.8786C60.2859 20.0303 60.2614 21.1819 60.2831 22.3336C60.3198 22.8741 60.3311 23.4222 60.4723 23.9495C59.7887 23.9712 59.1013 23.989 58.4186 23.9382C58.4204 23.7932 58.4204 23.6491 58.4195 23.5041C58.2877 23.5389 58.1737 23.6105 58.0749 23.7009C57.3903 24.0766 56.5833 24.1981 55.8149 24.0757C55.1039 23.9316 54.4447 23.4853 54.102 22.8374C53.9579 22.5728 53.8703 22.2846 53.8185 21.9889C53.7856 21.4174 53.8091 20.7846 54.1669 20.3081C54.1716 20.2742 54.182 20.2073 54.1877 20.1734C54.3958 19.9163 54.6227 19.6734 54.8798 19.4625C55.0747 19.2948 55.3092 19.1875 55.5427 19.082C55.6962 19.0076 55.8535 18.9408 56.0192 18.8965C56.1435 18.8532 56.2687 18.8108 56.393 18.7647C56.9835 18.6526 57.5786 18.5669 58.1813 18.5707C58.1417 18.3541 58.0796 18.1422 57.9901 17.9417C57.8215 17.7401 57.5824 17.629 57.3441 17.5358C56.522 17.4821 55.6378 17.6262 54.9937 18.1752H54.9203C54.9146 18.2138 54.9043 18.292 54.8986 18.3315C54.6962 18.1422 54.6557 17.8579 54.5643 17.6102C54.4636 17.2703 54.312 16.9463 54.247 16.597C54.5097 16.4538 54.7668 16.2984 55.0436 16.1798C55.1708 16.128 55.3007 16.0819 55.4307 16.0329ZM56.5898 20.5247C56.4138 20.6329 56.2424 20.7488 56.0804 20.8768C56.0672 20.9173 56.0418 20.9974 56.0286 21.0379C55.8149 21.4098 55.909 21.8995 56.1746 22.2215C56.5993 22.4485 57.1144 22.3948 57.5287 22.1697C57.6332 22.1104 57.7255 22.036 57.7914 21.9334C57.8168 21.9306 57.8686 21.924 57.8941 21.9202C58.0136 21.7394 58.1229 21.5511 58.2076 21.3514C58.2039 20.9851 58.2105 20.6188 58.2086 20.2516C57.6605 20.2845 57.1078 20.3297 56.5898 20.5247Z" fill="#000706"/>
<path d="M66.0809 15.9255C66.8314 15.9058 67.5819 15.9321 68.3334 15.9105C68.3032 16.0225 68.2759 16.1346 68.242 16.2448C68.1846 16.3719 68.1337 16.5028 68.0867 16.6346C67.8804 17.1601 67.6883 17.6912 67.4774 18.2147C67.3324 18.6206 67.1798 19.0236 67.0103 19.4201C66.9877 19.534 66.9444 19.6395 66.8813 19.7365L66.8785 19.8024C66.7551 20.0858 66.6619 20.3815 66.5386 20.665C66.3502 21.1659 66.1619 21.6678 65.9623 22.1641C65.9058 22.3223 65.8417 22.4786 65.7739 22.6321C65.6572 22.9636 65.5018 23.2781 65.3681 23.602C65.2937 23.7527 65.223 23.9043 65.1562 24.0578C64.9076 24.5522 64.6486 25.0409 64.3228 25.4891C63.9791 25.9609 63.561 26.3762 63.0742 26.701C62.8585 26.8253 62.6429 26.9496 62.4131 27.0457C62.2907 27.0975 62.1683 27.1474 62.0477 27.2011C61.8246 27.2387 61.6023 27.2839 61.3773 27.3084C61.2238 26.7105 61.042 26.1172 60.8499 25.5296C61.1532 25.4232 61.462 25.3309 61.7483 25.1821C61.9395 25.0644 62.1203 24.9326 62.2935 24.7895C62.7286 24.4429 63.0224 23.9589 63.2747 23.4711C63.3585 23.311 63.2361 23.151 63.1872 23.0012C63.1523 22.9118 63.1194 22.8223 63.0883 22.7329C62.9941 22.5144 62.9009 22.2959 62.8171 22.0737C62.6966 21.7554 62.5675 21.4409 62.4385 21.1254C62.3726 20.9729 62.3133 20.8166 62.2606 20.6593C62.2078 20.5388 62.156 20.4182 62.0986 20.2996C62.0459 20.1696 61.996 20.0388 61.9536 19.906C61.8575 19.6837 61.769 19.4587 61.6814 19.2336C61.543 18.9003 61.4234 18.5594 61.269 18.2326C61.1711 17.936 61.042 17.6516 60.9319 17.3607C60.865 17.2072 60.8019 17.0518 60.7407 16.8964C60.672 16.7401 60.6089 16.58 60.5486 16.4199C60.477 16.2551 60.414 16.0866 60.3574 15.9171C61.1202 15.919 61.883 15.9218 62.6457 15.9105C62.7568 16.177 62.8604 16.4472 62.9499 16.7231C63.0252 16.9068 63.0892 17.0942 63.1495 17.2834C63.1862 17.3748 63.2239 17.4671 63.2616 17.5593C63.3246 17.7166 63.3802 17.8776 63.4301 18.0396C63.4772 18.1592 63.5233 18.2797 63.5742 18.3984C63.6655 18.6507 63.7559 18.904 63.852 19.1555C64.0205 19.6329 64.1976 20.1084 64.368 20.5859C64.3981 20.6433 64.4594 20.7572 64.4904 20.8147C64.5121 20.6744 64.5375 20.5341 64.5695 20.3947C64.7598 19.9295 64.885 19.4399 65.0714 18.9728C65.2767 18.3409 65.4867 17.7091 65.7165 17.0847C65.7485 16.9623 65.7815 16.839 65.8267 16.7203C65.9208 16.4595 66.0122 16.1958 66.0809 15.9255Z" fill="#000706"/>
</svg>
