<svg width="81" height="40" viewBox="0 0 81 40" fill="none" xmlns="http://www.w3.org/2000/svg">
<rect x="0.333374" width="80" height="40" rx="3" fill="#F6F5F4" fill-opacity="0.7"/>
<path d="M14.8769 19.9991L13.6046 21.2703L12.3334 19.9991L13.6046 18.7279L14.8769 19.9991ZM17.9614 16.9124L20.1398 19.0919L21.411 17.8207L17.9614 14.3711L14.5118 17.8207L15.783 19.0919L17.9614 16.9124ZM22.3194 18.7279L21.0482 19.9991L22.3194 21.2703L23.5895 19.9991L22.3194 18.7279ZM17.9614 23.0859L15.783 20.9075L14.5118 22.1776L17.9614 25.6272L21.411 22.1776L20.1398 20.9075L17.9614 23.0859ZM17.9614 21.2703L19.2326 19.9991L17.9614 18.7279L16.6902 19.9991L17.9614 21.2703ZM31.3772 21.3924V21.3748C31.3772 20.5457 30.9374 20.1311 30.2215 19.8584C30.6613 19.611 31.033 19.2228 31.033 18.5267V18.5091C31.033 17.5392 30.2567 16.9124 28.9954 16.9124H26.1319V23.0859H29.0679C30.4612 23.0859 31.3794 22.5217 31.3794 21.3924H31.3772ZM29.6838 18.7532C29.6838 19.2118 29.3044 19.4064 28.7051 19.4064H27.4548V18.1033H28.7952C29.3682 18.1033 29.686 18.3321 29.686 18.7378L29.6838 18.7532ZM30.0279 21.2231C30.0279 21.6816 29.6662 21.8927 29.0657 21.8927H27.4548V20.5369H29.024C29.7211 20.5369 30.0301 20.7931 30.0301 21.2077L30.0279 21.2231ZM34.2308 23.0859V16.9124H32.8684V23.0859H34.2308ZM41.5315 23.0859V16.9124H40.1866V20.7139L37.2945 16.9124H36.042V23.0859H37.3824V19.1612L40.3713 23.0859H41.5315ZM49.0542 23.0859L46.404 16.8684H45.1515L42.5068 23.0859H43.8913L44.4576 21.7014H47.0682L47.6323 23.0859H49.0542ZM46.5855 20.5017H44.9404L45.7607 18.5003L46.5855 20.5017ZM55.5279 23.0859V16.9124H54.183V20.7139L51.2898 16.9124H50.0384V23.0859H51.3778V19.1612L54.3677 23.0859H55.5279ZM62.5382 22.0896L61.675 21.2165C61.19 21.6563 60.7578 21.9389 60.0519 21.9389C58.994 21.9389 58.2616 21.0592 58.2616 19.9991V19.9815C58.2616 18.9237 59.0116 18.0593 60.0519 18.0593C60.6688 18.0593 61.1515 18.3233 61.631 18.7554L62.492 17.7591C61.9191 17.195 61.223 16.8068 60.0585 16.8068C58.1627 16.8068 56.8398 18.2441 56.8398 19.9958V20.0134C56.8398 21.7861 58.189 23.1881 60.0057 23.1881C61.1944 23.1914 61.8993 22.7681 62.5338 22.0896H62.5382ZM68.3334 23.0859V21.8762H64.9772V20.5776H67.888V19.3679H64.9772V18.1209H68.285V16.9113H63.6279V23.0848L68.3334 23.0859Z" fill="#F0B90B"/>
</svg>
