<svg width="81" height="40" viewBox="0 0 81 40" fill="none" xmlns="http://www.w3.org/2000/svg">
<rect x="0.333374" width="80" height="40" rx="3" fill="#F6F5F4" fill-opacity="0.7"/>
<path d="M20.9772 10.1317C22.2916 9.56419 23.5643 10.9891 23.4341 12.2569C23.4734 13.3993 22.3776 14.5884 21.1861 14.2346C19.3901 13.7457 19.2501 10.8098 20.9772 10.1317Z" fill="#EF5133"/>
<path d="M19.7415 15.6866C20.8741 15.6645 22.0042 15.6768 23.1368 15.6768C23.1368 20.3644 23.1368 25.0496 23.1368 29.7347C22.0042 29.7249 20.8741 29.7372 19.7439 29.7274C19.7587 25.0471 19.7611 20.3669 19.7415 15.6866Z" fill="#EF5133"/>
<path d="M51.4394 10.1046C52.7465 9.60589 54.0191 10.9842 53.8815 12.2519C53.9577 13.5 52.6629 14.7333 51.4149 14.2198C49.7836 13.5073 49.759 10.7704 51.4394 10.1046Z" fill="#4B5A52"/>
<path d="M24.8836 10.4535C26.1784 10.4559 27.6082 10.5444 28.6376 11.4289C29.6818 12.3723 30.0012 13.8611 30.0184 15.2124C30.0135 18.3276 30.0184 21.4429 30.0159 24.5557C29.9692 25.9806 29.753 27.5628 28.6819 28.607C27.6353 29.6413 26.0604 29.7985 24.6625 29.7101C24.6895 28.5087 24.6797 27.3073 24.6723 26.1059C25.4757 26.0838 26.4216 25.7399 26.5076 24.8161C26.7164 22.5263 26.5199 20.2169 26.5764 17.9173C26.51 16.743 26.7926 15.4556 26.1808 14.3844C25.9081 13.9225 25.3258 13.9545 24.864 13.8783C25.4143 12.8071 25.461 11.5296 24.8836 10.4535Z" fill="#4B5A52"/>
<path d="M40.9414 10.7876C41.8013 10.7876 42.6588 10.7876 43.5186 10.7876C43.4818 12.618 43.5186 14.4483 43.4965 16.2786C44.6905 14.6694 47.5994 14.8832 48.4053 16.7577C49.2111 18.6716 48.8328 20.7943 48.9212 22.8089C48.8426 24.7817 49.2332 26.9388 48.1964 28.7323C47.1695 30.4005 44.4154 30.2408 43.4965 28.5333C43.5039 28.9337 43.5137 29.3342 43.5211 29.7347C42.6612 29.7371 41.8013 29.7371 40.9414 29.7371C40.9513 23.4206 40.9537 17.1041 40.9414 10.7876ZM44.3638 18.2662C43.612 18.534 43.5211 19.4602 43.5064 20.1432C43.5064 21.6984 43.4867 23.2536 43.5186 24.8087C43.558 25.4426 43.612 26.2189 44.1992 26.6022C44.7569 26.9191 45.7028 26.7938 45.8477 26.0568C46.1671 24.6761 45.9804 23.2413 46.032 21.836C45.9853 20.7869 46.1745 19.6519 45.6978 18.6765C45.4743 18.1704 44.8306 18.1114 44.3638 18.2662Z" fill="#4B5A52"/>
<path d="M55.3949 25.2682C55.4244 20.8041 55.3556 16.3376 55.4318 11.8735C56.417 11.9202 57.4046 11.9104 58.3923 11.8907C58.4389 13.242 58.4021 14.5932 58.4168 15.9445C59.2522 15.9224 60.0875 15.9224 60.9253 15.9494C60.9179 16.743 60.9179 17.5365 60.9228 18.3301C60.085 18.3178 59.2497 18.3178 58.4119 18.3227C58.4144 20.2267 58.4144 22.1308 58.4095 24.0348C58.4168 24.6638 58.434 25.3836 58.9156 25.8578C59.2423 26.2558 59.8295 26.2189 60.2177 26.5064C60.2717 27.6685 60.2152 28.8355 60.2349 30C58.8419 29.8354 57.326 29.5258 56.3457 28.4375C55.5645 27.5849 55.3679 26.386 55.3949 25.2682Z" fill="#4B5A52"/>
<path d="M32.286 16.5071C33.8363 14.3353 37.6911 14.9249 38.7008 17.34C39.5853 19.303 39.1848 21.5092 39.2954 23.5901C37.5117 23.6589 35.7256 23.6123 33.9419 23.6147C33.8731 24.396 33.7773 25.2043 34.0304 25.9634C34.2466 26.6047 35.104 26.7594 35.6617 26.5064C36.1433 26.2484 36.1727 25.6367 36.33 25.1723C37.3152 25.1871 38.3003 25.1846 39.2855 25.1797C39.2045 26.246 39.0398 27.3614 38.4011 28.2532C37.4552 29.6536 35.5217 30.0884 33.9567 29.6438C32.9101 29.3489 32.1288 28.4645 31.7529 27.4695C30.9937 25.6047 31.2099 23.5533 31.1755 21.5903C31.1682 19.8533 31.2886 17.991 32.286 16.5071ZM34.2564 18.7355C33.7085 19.4234 33.9051 20.3717 33.8633 21.1874C34.6642 21.1849 35.4676 21.1849 36.2685 21.2119C36.3373 20.4454 36.3717 19.6518 36.1236 18.9123C35.8877 18.1262 34.7011 18.1655 34.2564 18.7355Z" fill="#4B5A52"/>
<path d="M50.6262 15.7553C51.6188 15.775 52.6114 15.7725 53.6015 15.7652C53.6408 20.4233 53.6064 25.0839 53.6187 29.742C52.6187 29.7469 51.6163 29.7469 50.6164 29.742C50.6189 25.079 50.5968 20.4184 50.6262 15.7553Z" fill="#4B5A52"/>
</svg>
