<svg width="81" height="40" viewBox="0 0 81 40" fill="none" xmlns="http://www.w3.org/2000/svg">
<rect x="0.333374" width="80" height="40" rx="3" fill="#F6F5F4" fill-opacity="0.7"/>
<path d="M40.0932 29.8836C38.2737 28.8064 36.6871 27.3654 35.4498 25.6477C34.329 24.1048 33.5139 22.3435 33.0626 20.4803L33.019 20.3202L32.8734 19.607C32.5532 17.8312 32.5532 16.0116 32.888 14.2358L32.9462 13.9447L33.2373 13.8865C33.2519 13.8865 35.1441 13.4789 36.8181 12.5473C39.2053 11.2082 40.0059 10.3639 40.0204 10.3493L40.3406 10L40.6609 10.3493C40.6609 10.3493 41.476 11.2082 43.8486 12.5473C45.5226 13.4935 47.4003 13.8865 47.4294 13.8865L47.7206 13.9447L47.7788 14.2358C48.1136 16.0116 48.1136 17.8312 47.7933 19.607L47.7497 19.8544L47.6041 20.4658C47.1529 22.329 46.3377 24.0757 45.2024 25.6332C43.9651 27.3508 42.3785 28.7919 40.559 29.869L40.3406 30L40.0932 29.8836Z" fill="#000706"/>
<path d="M47.3712 14.2504C47.3712 14.2504 45.4061 13.8428 43.6449 12.853C41.1121 11.4265 40.3115 10.5677 40.3115 10.5677C40.3115 10.5677 39.511 11.441 36.9782 12.853C35.2169 13.8428 33.2519 14.2504 33.2519 14.2504C32.888 16.1572 32.9316 18.1077 33.3392 20H47.2693C47.6914 18.1077 47.7206 16.1572 47.3712 14.2504Z" fill="#FFB300"/>
<path d="M40.3115 29.6361C43.9797 27.4527 46.396 24.0175 47.2402 20.2038H33.3829C34.2271 24.0175 36.6434 27.4527 40.3115 29.6361Z" fill="#8E001C"/>
<path d="M35.3334 22.6638C35.3334 22.198 35.3334 22.1106 35.3334 22.0087C35.3334 21.9068 35.3043 21.8486 35.2024 21.8341C35.1587 21.8341 35.1296 21.8195 35.0859 21.8195C35.0568 21.8195 35.0277 21.8195 35.0277 21.7904C35.0277 21.7613 35.0422 21.7613 35.1005 21.7613C35.2606 21.7613 35.4644 21.7758 35.5226 21.7758C35.6245 21.7758 35.8574 21.7613 35.9593 21.7613C36.1631 21.7467 36.3523 21.7904 36.527 21.8923C36.658 21.9942 36.7307 22.1543 36.7307 22.3144C36.7307 22.5473 36.6289 22.7511 36.3232 23.0131C36.5997 23.3624 36.8181 23.639 36.9928 23.8282C37.0801 23.9301 37.2111 24.0175 37.3421 24.032C37.3712 24.032 37.4003 24.0466 37.4294 24.0466C37.4585 24.0466 37.4731 24.0611 37.4731 24.0757C37.4731 24.0902 37.4585 24.1048 37.4149 24.1048H37.1238C37.0073 24.1194 36.8909 24.0902 36.789 24.0466C36.658 23.9738 36.5415 23.8282 36.3668 23.5953C36.2504 23.4207 36.1048 23.2169 36.0612 23.1732C36.0466 23.1587 36.0321 23.1441 36.0029 23.1587H35.7264C35.7118 23.1587 35.6973 23.1587 35.6973 23.1878V23.2314C35.6973 23.5226 35.6973 23.77 35.7118 23.901C35.7264 23.9884 35.7409 24.0611 35.8283 24.0757C35.8719 24.0757 35.9302 24.0902 35.9738 24.0902C36.0029 24.0902 36.0029 24.1048 36.0029 24.1194C36.0029 24.1339 35.9884 24.1485 35.9447 24.1485C35.77 24.1485 35.5372 24.1339 35.4935 24.1339C35.4498 24.1339 35.246 24.1485 35.115 24.1485C35.0714 24.1485 35.0568 24.1339 35.0568 24.1194C35.0568 24.1048 35.0714 24.0902 35.1005 24.0902C35.1441 24.0902 35.1733 24.0902 35.2169 24.0757C35.2751 24.0611 35.2897 23.9884 35.3043 23.901C35.3188 23.77 35.3188 23.5226 35.3188 23.246L35.3334 22.6638ZM35.6973 22.8967C35.6973 22.9258 35.6973 22.9403 35.7264 22.9549C35.7992 22.984 35.8865 22.984 35.9593 22.984C36.0321 22.9985 36.1194 22.9694 36.1776 22.9258C36.3086 22.8093 36.3814 22.6346 36.3668 22.46C36.3668 22.0233 36.0757 21.8923 35.8865 21.8923C35.8283 21.8923 35.77 21.8923 35.7264 21.9068C35.7118 21.9068 35.6973 21.9214 35.6973 21.9505V22.8967Z" fill="#1D1D1B"/>
<path d="M37.3421 22.9258C37.3421 22.4017 37.6914 21.7031 38.623 21.7031C39.3945 21.7031 39.8749 22.1543 39.8749 22.8675C39.8749 23.5808 39.3799 24.1339 38.5939 24.1339C37.706 24.1485 37.3421 23.4789 37.3421 22.9258ZM39.4527 22.984C39.4527 22.2853 39.0452 21.8632 38.5357 21.8632C38.1718 21.8632 37.7788 22.067 37.7788 22.8384C37.7788 23.4789 38.1427 24.0029 38.7249 24.0029C38.9433 23.9884 39.4382 23.8865 39.4527 22.984Z" fill="#1D1D1B"/>
<path d="M40.3698 21.7904C40.3843 21.7322 40.3989 21.7031 40.428 21.7031C40.4571 21.7031 40.4716 21.7176 40.5153 21.8049L41.3596 23.5371L42.2038 21.7904C42.2329 21.7467 42.2475 21.7176 42.2766 21.7176C42.3057 21.7176 42.3203 21.7467 42.3348 21.8195L42.6259 23.7263C42.6551 23.9156 42.6842 24.0175 42.7715 24.032C42.8297 24.0466 42.9025 24.0611 42.9607 24.0611C42.9898 24.0611 43.0044 24.0611 43.0044 24.0757C43.0044 24.0902 42.9607 24.1048 42.9171 24.1048C42.8443 24.1048 42.4076 24.1048 42.2912 24.0903C42.2184 24.0903 42.2038 24.0757 42.2038 24.0611C42.2038 24.0466 42.2184 24.032 42.2329 24.032C42.2475 24.032 42.262 23.9884 42.2475 23.901L42.0583 22.5473H42.0437L41.3596 23.9301C41.2868 24.0757 41.2722 24.1048 41.2431 24.1048C41.214 24.1048 41.1849 24.0466 41.1412 23.9447C41.0684 23.7991 40.821 23.3333 40.7773 23.246C40.7482 23.1732 40.559 22.8093 40.4571 22.5764H40.4425L40.2824 23.7846C40.2824 23.8282 40.2679 23.8865 40.2679 23.9301C40.2679 23.9884 40.3115 24.0175 40.3552 24.032C40.3989 24.0466 40.4425 24.0466 40.4862 24.0466C40.5153 24.0466 40.5299 24.0466 40.5299 24.0611C40.5299 24.0757 40.5008 24.0903 40.4571 24.0903C40.3261 24.0903 40.1805 24.0757 40.1369 24.0757C40.0932 24.0757 39.9331 24.0903 39.8312 24.0903C39.8021 24.0903 39.773 24.0902 39.773 24.0611C39.773 24.032 39.7875 24.0466 39.8166 24.0466C39.8457 24.0466 39.8749 24.0466 39.904 24.032C39.9913 24.0175 40.0204 23.8865 40.035 23.7991L40.3698 21.7904Z" fill="#1D1D1B"/>
<path d="M43.7613 23.3042C43.7468 23.3042 43.7468 23.3042 43.7322 23.3333L43.5575 23.7555C43.5284 23.8137 43.5139 23.8865 43.5139 23.9447C43.5139 24.0029 43.543 24.0466 43.6303 24.0466H43.674C43.7176 24.0466 43.7176 24.0466 43.7176 24.0757C43.7176 24.1048 43.7031 24.1048 43.6594 24.1048C43.5575 24.1048 43.4265 24.0903 43.3246 24.0903C43.2955 24.0903 43.1208 24.1048 42.9607 24.1048C42.9171 24.1048 42.9025 24.1048 42.9025 24.0757C42.9025 24.0466 42.9171 24.0466 42.9462 24.0466C42.9753 24.0466 43.0044 24.0466 43.0481 24.0466C43.1936 24.032 43.2519 23.9301 43.3101 23.77L44.0961 21.8486C44.1398 21.7613 44.1543 21.7322 44.1834 21.7322C44.2126 21.7322 44.2271 21.7613 44.2562 21.8341C44.329 22.0087 44.8239 23.246 45.0277 23.7118C45.1441 23.9884 45.2315 24.032 45.3043 24.0466C45.3479 24.0611 45.3916 24.0611 45.4353 24.0611C45.4644 24.0611 45.4789 24.0611 45.4789 24.0903C45.4789 24.1194 45.4498 24.1194 45.3334 24.1194C45.2169 24.1194 44.9986 24.1194 44.7511 24.1194C44.6929 24.1194 44.6638 24.1194 44.6638 24.0903C44.6638 24.0611 44.6783 24.0611 44.7075 24.0611C44.7366 24.0466 44.7511 24.0175 44.7366 23.9884L44.4891 23.3479C44.4891 23.3333 44.4746 23.3188 44.46 23.3333L43.7613 23.3042ZM44.4018 23.1587C44.4163 23.1587 44.4163 23.1441 44.4163 23.1441L44.1398 22.3872C44.1398 22.3726 44.1398 22.3581 44.1252 22.3581C44.1107 22.3581 44.1107 22.3726 44.1107 22.3872L43.8195 23.1441C43.8195 23.1587 43.8195 23.1587 43.8341 23.1587H44.4018Z" fill="#1D1D1B"/>
<path d="M35.4207 22.591C35.4207 22.1252 35.4207 22.0378 35.4207 21.936C35.4207 21.8341 35.3916 21.7758 35.2897 21.7613C35.246 21.7613 35.2169 21.7467 35.1732 21.7467C35.1441 21.7467 35.115 21.7467 35.115 21.7176C35.115 21.6885 35.1441 21.6885 35.1878 21.6885C35.3479 21.6885 35.5517 21.7031 35.6099 21.7031C35.7118 21.7031 35.9447 21.6885 36.0466 21.6885C36.2504 21.6739 36.4396 21.7176 36.6143 21.8195C36.7453 21.9214 36.8181 22.0815 36.8181 22.2416C36.8181 22.4745 36.7162 22.6783 36.4105 22.9403C36.6871 23.2897 36.9054 23.5662 37.0801 23.7555C37.1674 23.8574 37.2984 23.9447 37.4294 23.9738C37.4585 23.9738 37.4877 23.9884 37.5168 23.9884C37.5459 23.9884 37.5604 24.0029 37.5604 24.0175C37.5604 24.032 37.5459 24.0466 37.5022 24.0466H37.2111C37.0946 24.0611 36.9782 24.032 36.8763 23.9884C36.7453 23.9156 36.6289 23.77 36.4542 23.5371C36.3377 23.3624 36.1922 23.1587 36.1485 23.115C36.1339 23.1004 36.1194 23.0859 36.0903 23.1004H35.8137C35.7992 23.1004 35.7846 23.1004 35.7846 23.1295V23.1732C35.7846 23.4643 35.7846 23.7118 35.7992 23.8428C35.8137 23.9301 35.8283 24.0029 35.9156 24.0175C35.9593 24.0175 36.0175 24.032 36.0612 24.032C36.0903 24.032 36.1048 24.0466 36.1048 24.0611C36.1048 24.0757 36.0903 24.0902 36.0466 24.0902C35.8719 24.0902 35.639 24.0757 35.5954 24.0757C35.5517 24.0757 35.3479 24.0902 35.2169 24.0902C35.1733 24.0902 35.1587 24.0757 35.1587 24.0611C35.1587 24.0466 35.1732 24.032 35.2024 24.032C35.246 24.032 35.2751 24.032 35.3188 24.0175C35.377 24.0029 35.3916 23.9301 35.4061 23.8428C35.4207 23.7118 35.4207 23.4643 35.4207 23.1878V22.591ZM35.7846 22.8239C35.7846 22.853 35.7846 22.8675 35.8137 22.8821C35.8865 22.9112 35.9738 22.9112 36.0466 22.9112C36.1194 22.9258 36.2067 22.8967 36.265 22.853C36.3523 22.7802 36.4542 22.6492 36.4542 22.3872C36.4542 21.9505 36.1631 21.8195 35.9738 21.8195C35.9156 21.8195 35.8574 21.8195 35.8137 21.8341C35.7992 21.8341 35.7846 21.8486 35.7846 21.8777V22.8239Z" fill="#FFB300"/>
<path d="M37.4294 22.8675C37.4294 22.3435 37.7788 21.6448 38.7104 21.6448C39.4818 21.6448 39.9622 22.0961 39.9622 22.8093C39.9622 23.5226 39.4673 24.0757 38.6813 24.0757C37.7788 24.0757 37.4294 23.4061 37.4294 22.8675ZM39.5255 22.9258C39.5255 22.2271 39.1179 21.8049 38.6085 21.8049C38.2446 21.8049 37.8516 22.0087 37.8516 22.7802C37.8516 23.4207 38.2155 23.9447 38.7977 23.9447C39.0306 23.9156 39.5255 23.8137 39.5255 22.9258Z" fill="#FFB300"/>
<path d="M40.4425 21.7176C40.4571 21.6594 40.4716 21.6303 40.5008 21.6303C40.5299 21.6303 40.5444 21.6448 40.5881 21.7322L41.4323 23.4643L42.2766 21.7176C42.3057 21.6739 42.3203 21.6448 42.3494 21.6448C42.3785 21.6448 42.393 21.6739 42.4076 21.7467L42.6842 23.6536C42.7133 23.8428 42.7424 23.9447 42.8297 23.9738C42.888 23.9884 42.9607 24.0029 43.019 24.0029C43.0481 24.0029 43.0626 24.0029 43.0626 24.0175C43.0626 24.032 43.019 24.0466 42.9753 24.0466C42.9025 24.0466 42.4658 24.0466 42.3494 24.032C42.2766 24.032 42.262 24.0175 42.262 24.0029C42.262 23.9884 42.2766 23.9738 42.2912 23.9738C42.3057 23.9738 42.3203 23.9301 42.3057 23.8428L42.1165 22.4891H42.1019L41.4323 23.8719C41.3596 24.0175 41.345 24.0466 41.3159 24.0466C41.2868 24.0466 41.2577 23.9884 41.214 23.8865C41.1412 23.7409 40.8938 23.2751 40.8501 23.1878C40.821 23.115 40.6318 22.7511 40.5299 22.5182H40.5153L40.3552 23.7263C40.3552 23.77 40.3406 23.8282 40.3406 23.8719C40.3406 23.9301 40.3843 23.9592 40.428 23.9738C40.4716 23.9884 40.5153 23.9884 40.559 23.9884C40.5881 23.9884 40.6027 23.9884 40.6027 24.0029C40.6027 24.0175 40.5735 24.032 40.5299 24.032C40.3989 24.032 40.2533 24.0175 40.2096 24.0175C40.1514 24.0175 40.0059 24.032 39.904 24.032C39.8749 24.032 39.8457 24.032 39.8457 24.0029C39.8457 23.9738 39.8603 23.9884 39.8894 23.9884C39.9185 23.9884 39.9476 23.9884 39.9767 23.9738C40.0641 23.9592 40.0932 23.8282 40.1077 23.7409L40.4425 21.7176Z" fill="#FFB300"/>
<path d="M43.8487 23.246C43.8341 23.246 43.8341 23.246 43.8195 23.2751L43.6449 23.6972C43.6158 23.7555 43.6012 23.8282 43.6012 23.8865C43.6012 23.9447 43.6303 23.9884 43.7176 23.9884H43.7613C43.805 23.9884 43.805 23.9884 43.805 24.0175C43.805 24.032 43.7904 24.0466 43.7468 24.0466C43.6449 24.0466 43.5139 24.032 43.412 24.032C43.3829 24.032 43.2082 24.0466 43.0481 24.0466C43.0044 24.0466 42.9898 24.0466 42.9898 24.0175C42.9898 23.9884 43.0044 23.9884 43.0335 23.9884C43.0626 23.9884 43.0917 23.9884 43.1354 23.9884C43.281 23.9738 43.3392 23.8719 43.3974 23.7118L44.1834 21.7758C44.2271 21.6885 44.2417 21.6594 44.2708 21.6594C44.2999 21.6594 44.3144 21.6885 44.3436 21.7613C44.4163 21.936 44.9112 23.1732 45.115 23.639C45.2315 23.9156 45.3188 23.9592 45.3916 23.9738C45.4353 23.9884 45.4789 23.9884 45.5226 23.9884C45.5517 23.9884 45.5663 23.9884 45.5663 24.0175C45.5663 24.0466 45.5372 24.0466 45.4207 24.0466C45.3043 24.0466 45.0859 24.0466 44.8385 24.0466C44.7802 24.0466 44.7511 24.0466 44.7511 24.0175C44.7511 23.9884 44.7657 23.9884 44.7948 23.9884C44.8239 23.9738 44.8385 23.9447 44.8239 23.9156L44.5765 23.2751C44.5765 23.2606 44.5619 23.246 44.5473 23.2606L43.8487 23.246ZM44.4891 23.0859C44.5037 23.0859 44.5037 23.0713 44.5037 23.0713L44.2271 22.3144C44.2271 22.2999 44.2271 22.2853 44.2126 22.2853C44.198 22.2853 44.198 22.2999 44.198 22.3144L43.9069 23.0713C43.9069 23.0859 43.9069 23.0859 43.9214 23.0859H44.4891Z" fill="#FFB300"/>
<path d="M39.2053 25.9098C39.2053 26.0844 39.3508 26.2445 39.5255 26.2445H39.5401C39.6274 26.2445 39.7002 26.2154 39.7584 26.1718L39.773 26.1572C39.773 26.1427 39.773 26.1427 39.7584 26.1427C39.7584 26.1427 39.7438 26.1572 39.7293 26.1572C39.6856 26.1718 39.6565 26.1863 39.6128 26.1718C39.5546 26.1718 39.3945 26.1135 39.3945 25.8515C39.3945 25.706 39.4818 25.6041 39.5983 25.6041C39.7147 25.6041 39.8603 25.7351 39.8603 26.0408C39.8603 26.361 39.6856 26.6521 39.4236 26.8268C39.4091 26.8268 39.4091 26.8413 39.4091 26.8559C39.4091 26.8705 39.4091 26.8705 39.4236 26.8705C39.4382 26.8705 39.4382 26.8705 39.4527 26.8705C39.6565 26.7686 40.0786 26.4774 40.0786 25.9971C40.0786 25.7351 39.9331 25.5313 39.6565 25.5313C39.4382 25.5167 39.2489 25.6769 39.2198 25.8952C39.2053 25.8806 39.2053 25.8952 39.2053 25.9098Z" fill="#000706"/>
<path d="M38.3028 25.8224C38.3028 25.837 38.3028 25.837 38.3174 25.837C38.3319 25.837 38.3319 25.837 38.3465 25.837C38.4047 25.8079 38.4775 25.7787 38.5357 25.7496C38.5648 25.7496 38.5648 25.7642 38.5648 25.8079V26.3028C38.5648 26.4629 38.5648 26.6084 38.5503 26.6812C38.5503 26.7394 38.5357 26.754 38.4775 26.7686C38.4338 26.7686 38.3901 26.7831 38.3465 26.7831C38.3465 26.7831 38.3319 26.7831 38.3319 26.7977C38.3319 26.8122 38.3465 26.8122 38.361 26.8122C38.4629 26.8122 38.6085 26.8122 38.6521 26.8122C38.6958 26.8122 38.8123 26.8122 38.9287 26.8122C38.9433 26.8122 38.9578 26.8122 38.9578 26.7977C38.9578 26.7831 38.9578 26.7831 38.9433 26.7831C38.8996 26.7831 38.8705 26.7831 38.8268 26.7686C38.7686 26.754 38.7686 26.7249 38.754 26.6812C38.754 26.6084 38.754 26.4629 38.754 26.3028V25.9825C38.754 25.7205 38.7686 25.5604 38.7686 25.5459C38.7686 25.5313 38.7686 25.5167 38.754 25.5167C38.7395 25.5167 38.7249 25.5313 38.7104 25.5313C38.6521 25.575 38.3319 25.7933 38.3174 25.7933C38.3028 25.8079 38.3028 25.8224 38.3028 25.8224Z" fill="#000706"/>
<path d="M40.2096 26.7977C40.2096 26.8122 40.2242 26.8268 40.2388 26.8268H40.8938C40.9957 26.8268 41.0248 26.8268 41.0393 26.7686C41.0539 26.6958 41.083 26.6084 41.083 26.5357C41.083 26.5211 41.083 26.5066 41.0684 26.5066C41.0539 26.5066 41.0539 26.5066 41.0539 26.5357C41.0393 26.623 40.952 26.6812 40.8647 26.6812C40.8064 26.6958 40.6027 26.6958 40.5735 26.6958H40.4571C40.4425 26.6958 40.4425 26.6958 40.4571 26.6812C40.6754 26.5066 41.0393 26.2154 41.0393 25.8806C41.0393 25.6769 40.9229 25.5167 40.6172 25.5167C40.5153 25.5167 40.4134 25.5313 40.3115 25.575C40.297 25.5895 40.297 25.5895 40.297 25.6041C40.297 25.6477 40.3115 25.7933 40.3115 25.8079C40.3115 25.8224 40.3115 25.837 40.3261 25.837C40.3406 25.837 40.3406 25.8224 40.3406 25.8079C40.3406 25.7496 40.3698 25.6914 40.4134 25.6477C40.4571 25.6041 40.5299 25.575 40.5881 25.5895C40.6754 25.5895 40.821 25.6477 40.821 25.9098C40.821 26.2737 40.4862 26.5357 40.2533 26.754C40.2242 26.7831 40.2096 26.7977 40.2096 26.7977Z" fill="#000706"/>
<path d="M41.2868 25.8224C41.2868 25.837 41.2868 25.8515 41.3013 25.8515C41.3159 25.8515 41.3159 25.837 41.3159 25.8224C41.3159 25.7787 41.345 25.7496 41.3741 25.7205C41.4178 25.6914 41.476 25.6914 41.5342 25.6914H41.9709C41.7671 26.0262 41.607 26.3755 41.476 26.754C41.476 26.7831 41.4615 26.7977 41.4615 26.8268C41.4615 26.8413 41.4615 26.8413 41.4906 26.8413C41.5634 26.8413 41.7089 26.7686 41.7089 26.7394C41.7089 26.7249 41.7089 26.6958 41.7089 26.6812C41.7962 26.3028 41.9418 25.9243 42.131 25.5895C42.131 25.575 42.1456 25.575 42.1456 25.5604C42.1456 25.5459 42.131 25.5459 42.1019 25.5459H41.5634C41.4906 25.5459 41.4178 25.5459 41.3305 25.5313C41.3159 25.5313 41.3159 25.5313 41.3159 25.5604C41.3159 25.575 41.2868 25.7642 41.2868 25.8224Z" fill="#000706"/>
<path d="M39.2635 25.8661C39.2635 26.0408 39.4091 26.1863 39.5837 26.2009C39.5983 26.2009 39.5983 26.2009 39.6128 26.2009C39.7002 26.2009 39.773 26.1718 39.8312 26.1281L39.8457 26.1135C39.8457 26.099 39.8457 26.099 39.8312 26.099C39.8312 26.099 39.8166 26.1135 39.8021 26.1135C39.7584 26.1281 39.7293 26.1427 39.6856 26.1281C39.6274 26.1281 39.4673 26.0699 39.4673 25.8079C39.4673 25.6623 39.5546 25.5604 39.6711 25.5604C39.7875 25.5604 39.9331 25.6914 39.9331 25.9971C39.9331 26.3173 39.7584 26.6084 39.4964 26.7831C39.4818 26.7831 39.4818 26.7977 39.4818 26.8122C39.4818 26.8268 39.4818 26.8268 39.4964 26.8268C39.5109 26.8268 39.511 26.8268 39.5255 26.8268C39.7293 26.7249 40.1514 26.4338 40.1514 25.9534C40.1514 25.6914 40.0059 25.4876 39.7293 25.4876C39.511 25.4731 39.3217 25.6332 39.2926 25.8515C39.2635 25.837 39.2635 25.8515 39.2635 25.8661Z" fill="#BDBBBB"/>
<path d="M38.3465 25.7642C38.3465 25.7788 38.3465 25.7787 38.361 25.7787C38.3756 25.7787 38.3756 25.7787 38.3901 25.7787C38.4484 25.7496 38.5211 25.7205 38.5794 25.6914C38.6085 25.6914 38.6085 25.706 38.6085 25.7496V26.2445C38.6085 26.4047 38.6085 26.5502 38.5939 26.623C38.5939 26.6812 38.5794 26.6958 38.5211 26.7103C38.4775 26.7103 38.4338 26.7249 38.3901 26.7249C38.3901 26.7249 38.3756 26.7249 38.3756 26.7394C38.3756 26.754 38.3901 26.754 38.4047 26.754C38.5066 26.754 38.6521 26.754 38.6958 26.754C38.7395 26.754 38.8559 26.754 38.9724 26.754C38.9869 26.754 39.0015 26.754 39.0015 26.7394C39.0015 26.7249 39.0015 26.7249 38.9869 26.7249C38.9433 26.7249 38.9142 26.7249 38.8705 26.7103C38.8123 26.6958 38.8123 26.6667 38.7977 26.623C38.7977 26.5502 38.7977 26.4047 38.7977 26.2445V25.9243C38.7977 25.6623 38.8123 25.5022 38.8123 25.4876C38.8123 25.4731 38.8123 25.4585 38.7977 25.4585C38.7831 25.4585 38.7686 25.4731 38.754 25.4876C38.6958 25.5313 38.3756 25.7496 38.361 25.7496C38.361 25.7642 38.3465 25.7642 38.3465 25.7642Z" fill="#BDBBBB"/>
<path d="M40.2679 26.7394C40.2679 26.754 40.2824 26.7686 40.297 26.7686H40.952C41.0539 26.7686 41.083 26.7686 41.0976 26.7103C41.1121 26.6376 41.1412 26.5502 41.1412 26.4774C41.1412 26.4629 41.1412 26.4483 41.1267 26.4483C41.1121 26.4483 41.1121 26.4483 41.1121 26.4774C41.0976 26.5648 41.0102 26.623 40.9229 26.623C40.8647 26.6376 40.6609 26.6376 40.6318 26.6376H40.5153C40.5008 26.6376 40.5008 26.6376 40.5153 26.623C40.7337 26.4483 41.0976 26.1572 41.0976 25.8224C41.0976 25.6186 40.9666 25.4585 40.6754 25.4585C40.5735 25.4585 40.4716 25.4731 40.3698 25.5167C40.3552 25.5313 40.3552 25.5313 40.3552 25.5459C40.3552 25.5895 40.3698 25.7351 40.3698 25.7496C40.3698 25.7642 40.3698 25.7787 40.3843 25.7787C40.3989 25.7787 40.3989 25.7642 40.3989 25.7496C40.3989 25.6914 40.428 25.6332 40.4716 25.5895C40.5153 25.5459 40.5881 25.5167 40.6463 25.5313C40.7337 25.5313 40.8792 25.5895 40.8792 25.8515C40.8792 26.2154 40.5444 26.4774 40.3115 26.6958C40.2824 26.7249 40.2679 26.7394 40.2679 26.7394Z" fill="#BDBBBB"/>
<path d="M41.3305 25.7787C41.3305 25.7933 41.3305 25.8079 41.345 25.8079C41.3596 25.8079 41.3596 25.7933 41.3596 25.7787C41.3596 25.7351 41.3887 25.706 41.4178 25.6769C41.4615 25.6477 41.5197 25.6477 41.5779 25.6477H42.0146C41.8108 25.9825 41.6507 26.3464 41.5197 26.7103C41.5197 26.7394 41.5051 26.754 41.5051 26.7831C41.5051 26.7977 41.5051 26.7977 41.5342 26.7977C41.607 26.7977 41.7526 26.7249 41.7526 26.6958C41.7526 26.6812 41.7526 26.6521 41.7526 26.6376C41.8399 26.2591 41.9855 25.8806 42.1747 25.5459C42.1747 25.5313 42.1893 25.5313 42.1893 25.5167C42.1893 25.5022 42.1747 25.5022 42.1456 25.5022H41.607C41.5342 25.5022 41.4469 25.5022 41.3741 25.4876C41.3596 25.4876 41.3596 25.4876 41.3596 25.5167C41.3596 25.5167 41.3305 25.7205 41.3305 25.7787Z" fill="#BDBBBB"/>
<path d="M46.0175 18.821L45.8865 18.6608C45.6827 18.4279 45.246 17.8166 45.246 17.8166C45.246 15.8806 44.8967 15.5167 44.5473 15.2111C44.2271 14.9491 43.7322 14.8035 43.1936 14.7162C43.0335 14.687 42.8588 14.687 42.6987 14.687C42.524 14.687 42.3348 14.7016 42.1601 14.7016C42.0146 14.7162 39.4818 14.818 38.6813 14.6725C38.3319 14.6143 37.837 14.687 37.5459 14.7162C37.4149 14.7307 36.6871 14.8472 36.5997 14.7162C36.5852 14.6725 36.5852 14.6143 36.5852 14.5706C36.5997 14.4687 36.6434 14.3377 36.5561 14.2358C36.4542 14.0902 36.3232 13.9156 36.265 13.9156C36.1776 13.9738 36.0903 14.032 36.0175 14.1048C35.9447 14.2067 35.9156 14.3231 35.9302 14.4396C35.9302 14.5269 35.9302 14.5124 35.9156 14.5124C35.9011 14.5124 35.4353 14.5269 35.3188 14.5269C35.3188 14.4396 35.2897 14.3377 35.2315 14.2649C35.1878 14.163 35.1587 14.0611 35.1441 13.9447C35.1441 13.9447 34.9695 14.2358 34.9258 14.3086C34.853 14.3959 34.7948 14.4833 34.7657 14.5852C34.7511 14.6288 34.7511 14.6725 34.7511 14.7162C34.7511 14.7598 34.7511 14.7889 34.7366 14.8326C34.6492 14.8908 34.591 14.9927 34.591 15.0946C34.591 15.1383 34.591 15.182 34.6056 15.2256C34.6201 15.2547 34.6201 15.2984 34.6201 15.3275L34.591 15.3421C34.5182 15.4003 34.4018 15.4585 34.4163 15.5895C34.4163 15.7205 34.46 15.8515 34.5328 15.9534C34.5473 15.9825 34.5619 16.0116 34.591 16.0408C34.6201 16.099 34.6347 16.1718 34.6347 16.23C34.6492 16.3319 34.5619 16.4338 34.6201 16.492C34.7075 16.5793 34.9112 16.5793 35.0131 16.5793H35.1587C35.1878 16.5793 35.2169 16.5793 35.246 16.5793C35.4207 16.6084 35.5954 16.6376 35.77 16.6376C36.0029 16.6521 36.2358 16.6812 36.4542 16.7394C36.8909 16.8705 37.313 17.0451 37.706 17.2635L37.7788 17.2926C37.9389 17.3799 37.968 17.3654 38.0408 17.5837C38.1136 17.802 37.9826 19.5051 37.9535 19.6798C37.9098 19.9563 37.8224 20.131 37.6623 20.1892C37.5022 20.262 37.3712 20.393 37.2984 20.5677C37.2693 20.6114 37.2839 20.6696 37.2402 20.7278C37.2402 20.7278 37.182 20.8006 37.1965 20.8151C37.2111 20.8297 37.4149 20.786 37.4149 20.786C37.4877 20.786 37.4149 20.8297 37.4731 20.8297C37.6769 20.8443 37.8807 20.8006 38.0553 20.7132C38.1427 20.7132 38.0845 20.8297 38.1718 20.8151C38.4192 20.7715 38.4484 20.5822 38.4775 20.393C38.5357 20.0873 38.5211 20.0291 38.5503 20C38.5794 19.9709 38.6958 20.0146 38.7249 19.9854C38.7395 19.8399 38.7395 19.6798 38.7395 19.5342C38.7686 19.2285 38.8268 18.9229 38.9287 18.6317V18.6172C38.9433 18.559 38.9724 18.4862 39.0015 18.3988C39.0888 18.1805 39.1762 17.933 39.1616 17.7147C39.2198 17.7147 39.2781 17.7438 39.3217 17.802C39.3363 17.8166 39.3363 17.8312 39.3508 17.8603C39.4527 18.0204 39.4964 18.064 39.5692 18.064H39.5837C39.6856 18.0349 39.7438 17.9476 39.8021 17.8312C39.8603 17.7147 39.9185 17.5983 40.0204 17.5691H40.035C40.166 17.5837 40.2824 17.6565 40.3552 17.7584C40.5299 18.0349 40.69 17.8457 40.7045 17.8166C40.7191 17.7875 40.8647 17.5546 40.9083 17.4964C40.952 17.4381 40.9811 17.4236 40.9811 17.4236C41.0684 17.4381 41.4469 17.8894 41.5779 17.8603C41.7089 17.8312 41.8545 17.3508 41.9418 17.3508H41.9564C41.9855 17.3945 42.0291 17.4381 42.0437 17.4818C42.1456 17.6274 42.1601 17.7293 42.2475 17.7293C42.2766 17.7293 42.3203 17.7147 42.3494 17.6419C42.3494 17.6274 42.393 17.5546 42.393 17.54C42.393 17.54 42.4658 17.7729 42.6259 17.5691C42.6259 17.5691 42.6259 17.5691 42.6259 17.5546C42.6405 17.4964 42.9462 17.802 43.0917 17.9185C43.2373 18.0349 43.3246 18.1514 43.3392 18.1514C43.6449 18.4279 44.0379 18.7773 44.1107 19.1558C44.1543 19.3886 44.1398 19.6215 44.0815 19.8544C44.0815 19.8836 44.067 19.9127 44.0524 19.9418C44.0233 19.9563 43.9942 19.9563 43.9651 19.9563H43.9069C43.805 19.9563 43.7322 20.0728 43.674 20.1747C43.6449 20.2183 43.6012 20.262 43.5866 20.2911C43.5721 20.3202 43.6012 20.3785 43.6158 20.393C43.7031 20.4221 43.7904 20.4367 43.8778 20.4512C43.8923 20.4512 43.9069 20.4512 43.9214 20.4512C43.9651 20.4658 44.0233 20.4803 44.067 20.4803C44.2417 20.4803 44.4454 20.4076 44.5037 20.2911C44.6056 20.0873 44.6783 19.8836 44.7366 19.6652L44.7511 19.5924C44.7657 19.5488 44.7802 19.4905 44.8093 19.4469C44.8821 19.2576 45.0131 19.0539 44.9549 18.8646C44.9112 18.7627 44.8385 18.6608 44.7657 18.5881C44.7075 18.5153 44.5037 18.2387 44.4309 18.1368C44.6347 18.3261 45.1733 18.6172 45.3188 18.952C45.3625 19.0684 45.3188 19.5488 45.3043 19.6943C45.3043 19.7525 45.3043 19.8108 45.2897 19.8836C45.2897 20.0873 45.2315 20.1164 45.0277 20.1456C44.853 20.1601 44.7802 20.4221 44.7366 20.5531V20.5677L44.722 20.6259L44.7948 20.6405L44.8821 20.655C45.0422 20.6987 45.2024 20.7424 45.3625 20.7569C45.508 20.7715 45.639 20.7278 45.7409 20.6259C45.8428 20.524 45.8865 20.3202 45.9156 20.1456C45.9302 20.0728 46.0029 19.8399 46.0321 19.7671C46.1485 19.3304 46.3086 19.1266 46.0175 18.821ZM34.7948 16.2591C34.7366 16.3028 34.722 16.1863 34.722 16.1863C34.7075 16.1426 34.7075 16.099 34.722 16.0844C34.7657 16.1135 34.8239 16.1135 34.8385 16.1426C34.853 16.1863 34.8385 16.23 34.7948 16.2591Z" fill="#000706"/>
<path d="M38.1427 20.6259L38.1136 20.5968V20.5822L38.1281 20.5677H38.1427L38.1572 20.5968C38.1572 20.5968 38.1572 20.6114 38.1427 20.6259Z" fill="#BDBBBB"/>
<path d="M42.8297 17.6856C42.8152 17.6856 42.8006 17.7001 42.7861 17.7001C42.8006 17.7001 42.8152 17.7147 42.8152 17.7147C42.8152 17.7001 42.8152 17.7001 42.8297 17.6856Z" fill="#BDBBBB"/>
<path d="M42.7278 17.7001C42.7133 17.6856 42.6987 17.6856 42.6842 17.671H42.6405C42.6405 17.6565 42.6551 17.6565 42.6696 17.6565H42.6842C42.7133 17.6565 42.7278 17.671 42.7278 17.7001Z" fill="#000706"/>
<path d="M42.5095 17.6565C42.5095 17.6419 42.5241 17.6419 42.5386 17.6419H42.5677H42.5823L42.5677 17.6565H42.5095Z" fill="#000706"/>
<path d="M42.5677 17.6419C42.5532 17.6565 42.5532 17.6565 42.5677 17.6419C42.5386 17.6419 42.5386 17.6419 42.5241 17.6565C42.5241 17.6565 42.5241 17.6274 42.5677 17.6419Z" fill="#000706"/>
<path d="M42.9607 20.4658C42.6987 20.4658 42.6696 20.0437 42.6551 19.9709C42.5968 19.9563 42.524 19.9272 42.4804 19.8836H42.4658C42.4658 19.9127 42.4658 19.9418 42.4658 19.9709C42.4658 20 42.4804 20.1456 42.4804 20.1747C42.4949 20.262 42.4658 20.3493 42.393 20.393C42.3639 20.4076 42.3203 20.4221 42.2912 20.4221C42.262 20.4221 42.2329 20.4221 42.2038 20.4076H42.1747L42.0728 20.393C42.0146 20.393 41.869 20.4076 41.8399 20.4076H41.8254C41.7671 20.4076 41.7089 20.3785 41.6652 20.3348C41.6216 20.2911 41.6216 20.2183 41.6507 20.1747L41.6798 20.1456C41.6944 20.131 41.7235 20.1164 41.7526 20.1164C41.7817 20.1019 41.8399 20.0728 41.9127 20.0291C41.8399 19.8981 41.5488 19.4469 41.8108 19.3159C41.9273 19.2576 42.0583 19.214 42.1893 19.1849C42.1893 19.1703 42.1893 19.1703 42.1893 19.1558C42.1893 19.1266 42.1893 19.1121 42.1893 19.083C42.1601 19.0975 42.1165 19.1121 42.0728 19.1121C42.0583 19.1121 42.0583 19.1121 42.0437 19.1121C41.9564 19.083 41.8836 19.0247 41.8254 18.952C41.8108 18.9229 41.738 18.7918 41.6652 18.6608C41.5925 18.6608 41.5197 18.6608 41.4469 18.6463C41.4323 18.6463 41.4032 18.6317 41.2868 18.5298C41.2431 18.5007 41.2286 18.4571 41.2286 18.4134C41.2286 18.3697 41.2577 18.3406 41.2868 18.3261C41.3013 18.2969 41.345 18.2824 41.3741 18.2678H41.4032C41.4323 18.2678 41.4615 18.2824 41.476 18.2969C41.476 18.2824 41.476 18.2678 41.4906 18.2533C41.5197 18.2096 41.5634 18.1805 41.607 18.1805C41.6361 18.1805 41.6798 18.1951 41.7089 18.2096C41.7235 18.2096 41.7235 18.2096 41.7235 18.2096C41.7526 18.2242 41.7817 18.2242 41.8108 18.2387C41.8399 18.2533 41.869 18.2678 41.9273 18.3697L42.0291 18.4571C42.0583 18.3988 42.0874 18.3406 42.1456 18.2969C42.1747 18.2824 42.2038 18.2678 42.2329 18.2533H42.262C42.2766 18.2387 42.2912 18.2242 42.3057 18.2242V18.2096C42.2912 18.1951 42.2766 18.1659 42.262 18.1368C42.2329 18.0932 42.2184 18.0349 42.2329 17.9767V17.9622C42.2329 17.8603 42.3639 17.7729 42.3639 17.7729C42.3785 17.7584 42.393 17.7584 42.4076 17.7438C42.4367 17.7001 42.4658 17.671 42.5095 17.6419C42.5386 17.6128 42.5677 17.5983 42.5968 17.5837C42.6259 17.5255 42.6987 17.4964 42.7715 17.4964C42.8006 17.4964 42.888 17.4964 42.9171 17.5109C42.9753 17.5255 43.019 17.5546 43.0481 17.6128C43.1063 17.6274 43.15 17.6856 43.15 17.7438L43.1791 17.7875C43.2082 17.8166 43.2227 17.8603 43.2373 17.8894C43.2664 17.9476 43.2664 18.0058 43.2664 18.064C43.2664 18.1368 43.2519 18.2096 43.2082 18.2678C43.2082 18.2824 43.2082 18.2824 43.1936 18.2969C43.2664 18.3552 43.3246 18.4571 43.3392 18.559C43.3537 18.5881 43.3829 18.7336 43.412 18.821C43.4265 18.9083 43.4265 18.9956 43.3974 19.083V19.0975L43.3829 19.1121C43.3683 19.1266 43.3246 19.1849 43.3101 19.1994C43.281 19.2285 43.2519 19.2576 43.2082 19.2576C43.2227 19.3013 43.2227 19.345 43.2373 19.3886C43.2955 19.476 43.3392 19.5779 43.3537 19.6798C43.3537 19.7089 43.3392 19.738 43.3392 19.7671C43.3537 19.8108 43.3537 19.8399 43.3537 19.8836C43.3974 19.9272 43.4265 19.9854 43.4556 20.0291V20.0437C43.6158 20.3785 43.2227 20.4076 43.1936 20.4076C43.1208 20.4512 43.0335 20.4658 42.9607 20.4658Z" fill="#000706"/>
<path d="M42.9316 17.6274C42.9025 17.6274 42.8297 17.6128 42.8006 17.6128C42.6842 17.6128 42.7424 17.671 42.7424 17.671C42.6987 17.671 42.6551 17.6856 42.6114 17.7147C42.5677 17.7438 42.5095 17.8312 42.5095 17.8312C42.4949 17.8312 42.4804 17.8457 42.4658 17.8603C42.4222 17.8748 42.393 17.9185 42.393 17.9622C42.3785 17.9913 42.393 18.0349 42.4076 18.064C42.4367 18.1077 42.4658 18.1514 42.4658 18.1514C42.4658 18.1659 42.4658 18.1805 42.4658 18.1951C42.4513 18.2242 42.4367 18.2678 42.4367 18.2678C42.4076 18.2824 42.393 18.2969 42.3639 18.3115C42.3494 18.3261 42.262 18.3406 42.2475 18.3552C42.1893 18.3988 42.1601 18.4571 42.1456 18.5298C42.1165 18.559 42.1019 18.5735 42.0874 18.6172L41.8836 18.3988C41.8836 18.3988 41.8545 18.3115 41.8254 18.2969C41.8108 18.2969 41.7235 18.2678 41.7089 18.2533C41.6361 18.2242 41.6216 18.2533 41.6361 18.2678C41.6507 18.2824 41.6798 18.3115 41.7089 18.3115C41.7235 18.3115 41.7235 18.3988 41.5342 18.3697C41.5342 18.3697 41.476 18.3406 41.4469 18.3261C41.3596 18.2969 41.3741 18.3843 41.3887 18.3988C41.4323 18.4425 41.4615 18.4716 41.5051 18.5007C41.5197 18.5007 41.7526 18.5153 41.7526 18.5153C41.7526 18.5153 41.9127 18.821 41.9418 18.8501C41.9855 18.8937 42.0291 18.9374 42.0874 18.9665C42.1747 18.9665 42.2475 18.9083 42.2912 18.8355L42.3057 19.2285C42.1601 19.2576 42.0146 19.3013 41.869 19.3595C41.7235 19.4614 41.9709 19.8836 42.0583 20C42.0874 20.0437 42.0583 20.0437 42.0583 20.0437C42.0583 20.0437 41.7962 20.1892 41.7962 20.2038C41.7817 20.2038 41.7671 20.2038 41.7526 20.2183C41.7526 20.2183 41.738 20.2329 41.7526 20.2475C41.7817 20.262 41.8108 20.2766 41.8399 20.2911C41.869 20.2911 42.0583 20.2766 42.1019 20.2766C42.1456 20.2766 42.2038 20.2911 42.2184 20.2911C42.2475 20.2911 42.3057 20.3202 42.3494 20.2911C42.393 20.262 42.393 20.2183 42.3785 20.1747C42.3785 20.131 42.3639 19.9563 42.3639 19.9563C42.3639 19.9563 42.3639 19.7525 42.3494 19.738C42.393 19.7525 42.4513 19.7525 42.4949 19.7525C42.5241 19.738 42.5532 19.7817 42.5532 19.7817C42.5532 19.7817 42.6405 19.8544 42.6696 19.8399C42.6987 19.8253 42.7133 19.8253 42.7278 19.7671C42.7424 19.7525 42.7569 19.7525 42.7569 19.7962C42.7569 19.8399 42.7278 20.3348 42.9607 20.3202C43.0481 20.3202 43.1208 20.2911 43.1936 20.2475C43.2082 20.2766 43.2519 20.2911 43.2955 20.2766C43.4411 20.2183 43.3683 20.0873 43.3537 20.0728C43.3392 20.0582 43.281 19.9127 43.2373 19.8981C43.2373 19.8399 43.2373 19.7817 43.2227 19.7234C43.2373 19.6943 43.2519 19.6652 43.2519 19.6361C43.2373 19.5488 43.1936 19.4614 43.1354 19.4032C43.1208 19.3013 43.0917 19.1849 43.0481 19.083C43.0772 19.0975 43.1208 19.1121 43.1645 19.1121C43.1936 19.1121 43.2082 19.0975 43.2227 19.083C43.2373 19.0684 43.2955 18.9956 43.2955 18.9956C43.3246 18.9374 43.3246 18.8646 43.3101 18.7919C43.281 18.69 43.2373 18.5298 43.2373 18.5298C43.2373 18.5298 43.2082 18.3697 43.1354 18.3406C43.1063 18.3261 43.0772 18.3115 43.0481 18.3115C43.0481 18.3115 43.019 18.2824 43.0481 18.2678C43.0626 18.2533 43.0917 18.2387 43.1063 18.2242C43.1208 18.2096 43.1208 18.1805 43.1354 18.1659C43.1354 18.1659 43.1791 18.1368 43.1791 18.0058C43.1936 17.9622 43.1791 17.9185 43.1645 17.8748C43.1645 17.8457 43.15 17.8312 43.1354 17.8166L43.0917 17.7584C43.0917 17.7584 43.0917 17.6856 43.0626 17.6856C43.0481 17.6856 43.0335 17.671 43.0044 17.671C43.0044 17.6856 43.0044 17.6274 42.9316 17.6274Z" fill="#BDBBBB"/>
<path d="M42.9753 18.0058C42.9753 17.9913 42.9753 17.9913 42.9753 18.0058C42.9607 18.0058 42.9462 18.0058 42.9316 18.0058C42.9171 18.0058 42.9025 18.0058 42.9025 17.9913C42.9025 18.0058 42.9171 18.0204 42.9316 18.0349C42.9607 18.0349 42.9753 18.0204 42.9753 18.0058Z" fill="#000706"/>
<path d="M41.9709 20.1164C41.8836 20 41.7089 19.9563 41.5779 20.0437L41.5634 20.0291C41.5342 20 41.4469 19.9563 41.4032 19.9272C41.3741 19.8836 41.3305 19.8544 41.2868 19.8253C41.214 19.7817 41.1267 19.7525 41.0393 19.738C41.0393 19.6507 41.0248 19.5633 40.9957 19.476C41.0102 19.3886 41.0102 19.2868 41.0102 19.1849C41.0684 19.1994 41.1412 19.1994 41.1995 19.214C41.2286 19.214 41.2577 19.214 41.2868 19.1994C41.3596 19.1849 41.4323 19.1412 41.4906 19.083L41.5051 19.0684V19.0539C41.5197 18.9665 41.5051 18.8792 41.4615 18.7919C41.3741 18.6754 41.2868 18.5735 41.1849 18.4862C41.1849 18.4425 41.1849 18.3988 41.1849 18.3988C41.1849 18.3552 41.1703 18.3115 41.1412 18.2824C41.0976 18.2387 41.0539 18.1805 41.0102 18.1368C40.9811 18.1223 40.9374 18.1077 40.9083 18.1077C40.8938 18.1077 40.8792 18.1077 40.8792 18.1077C40.7773 18.1223 40.7919 18.2678 40.7919 18.2824C40.7773 18.2824 40.7628 18.2678 40.7482 18.2678C40.7191 18.2387 40.6754 18.2096 40.6172 18.1951C40.5881 18.1659 40.5444 18.1659 40.5153 18.1659H40.5008C40.4425 18.1659 40.4425 18.1805 40.4134 18.1951C40.3698 18.2096 40.3261 18.2387 40.297 18.2678C40.2679 18.2824 40.2388 18.3115 40.2096 18.3552C40.166 18.3843 40.1514 18.4279 40.1223 18.4716L40.1077 18.5007C40.0786 18.559 40.0641 18.6172 40.0786 18.69C40.0059 18.7045 39.9476 18.7482 39.904 18.8064C39.8894 18.8501 39.8603 18.8937 39.8457 18.9374C39.8166 18.9374 39.5546 18.9665 39.5692 19.0975C39.5692 19.1412 39.5983 19.1703 39.6274 19.1994C39.6128 19.2431 39.6128 19.2868 39.6274 19.3159C39.642 19.345 39.6711 19.3741 39.7002 19.3886C39.7147 19.4178 39.7293 19.4614 39.7438 19.476C39.773 19.5051 39.7875 19.5342 39.8166 19.5488C39.7584 19.5633 39.7147 19.5924 39.6565 19.6215C39.5401 19.6798 39.4964 19.8253 39.5546 19.9272C39.5546 19.9272 39.5546 19.9418 39.5692 19.9418C39.6565 20.0582 39.7584 20.1601 39.8603 20.2475C39.8457 20.262 39.6711 20.5968 39.9622 20.6114C40.035 20.7278 40.2679 20.5677 40.2679 20.5531C40.2824 20.5531 40.6027 20.5531 40.5153 20.3202C40.5299 20.3202 40.6463 20.2911 40.6463 20.2911C40.69 20.3202 40.7482 20.3348 40.8064 20.3493C40.821 20.3493 40.8647 20.3493 40.8792 20.3493C40.9229 20.3493 40.9811 20.3493 41.0248 20.3493H41.0539C41.0976 20.4076 41.1412 20.4658 41.1995 20.5095C41.2722 20.5531 41.4615 20.6259 41.5197 20.655C41.5779 20.7132 41.6652 20.7569 41.738 20.7715C42 20.7715 41.9273 20.5386 41.9273 20.5095C41.9418 20.4512 41.9855 20.1747 41.9127 20.0728" fill="#000706"/>
<path d="M41.0393 18.8355C40.9957 18.8064 40.9374 18.7918 40.8792 18.7918C40.8647 18.7773 40.8355 18.7627 40.821 18.7627C40.821 18.7627 40.8792 18.7191 40.8792 18.6754C40.8355 18.4425 40.7628 18.4279 40.7628 18.4279C40.7482 18.3988 40.7045 18.3697 40.6754 18.3697C40.6609 18.3261 40.5735 18.3115 40.5735 18.3115C40.559 18.2969 40.5299 18.2824 40.5153 18.2824C40.5008 18.2824 40.4716 18.2969 40.4571 18.3115C40.4134 18.3115 40.3843 18.3261 40.3552 18.3697C40.3261 18.3843 40.297 18.4134 40.2824 18.4425C40.2824 18.4425 40.2533 18.4571 40.2242 18.5298C40.1951 18.5735 40.1805 18.6317 40.1951 18.6754C40.2096 18.7045 40.2242 18.7336 40.2388 18.7627C40.2242 18.7773 40.1951 18.7918 40.1805 18.7918C40.1514 18.8064 40.0641 18.8064 40.035 18.8792C40.0059 18.9374 39.9767 19.0102 39.9622 19.083C39.9476 19.0684 39.9331 19.0684 39.9185 19.0684C39.8749 19.0684 39.8166 19.0684 39.773 19.083C39.7584 19.0975 39.7147 19.0975 39.7147 19.1121C39.7147 19.1557 39.8021 19.1412 39.8021 19.1412L39.7875 19.2431C39.7875 19.2431 39.7584 19.2722 39.7584 19.2868C39.7584 19.3013 39.773 19.3013 39.7875 19.3013C39.8021 19.3013 39.8166 19.2722 39.8166 19.2722C39.8166 19.3304 39.8312 19.3886 39.8603 19.4323C39.8894 19.4614 39.9185 19.4905 39.9622 19.5051C39.9767 19.5051 40.0059 19.5051 40.0204 19.5051C40.0641 19.4905 40.0932 19.4614 40.1077 19.4323C40.1077 19.4178 40.1223 19.3595 40.1223 19.3595L40.1514 19.2722L40.166 19.2868V19.476C40.1369 19.5342 40.1077 19.5924 40.0932 19.6507C39.9622 19.6507 39.8457 19.6798 39.7438 19.738C39.6274 19.8253 39.6711 19.8981 39.6856 19.9272C39.7147 19.9709 40.0641 20.3202 40.0786 20.3202C40.0932 20.3202 40.0786 20.3493 40.0641 20.3493H40.0204C40.0204 20.3493 39.9622 20.3348 39.9476 20.3493C39.9185 20.4076 39.9767 20.393 39.9913 20.4076C40.0059 20.4221 39.9476 20.393 39.9331 20.4221C39.9185 20.4512 39.9331 20.4949 39.9622 20.524C39.9767 20.5386 40.0204 20.5386 40.0204 20.5386C40.035 20.5386 40.035 20.5677 40.0641 20.5677C40.1223 20.5968 40.2679 20.4803 40.2824 20.4803C40.3406 20.5095 40.4134 20.4803 40.428 20.4076C40.428 20.3785 40.428 20.3493 40.4134 20.3202C40.3989 20.2911 40.3843 20.262 40.3552 20.2475L40.428 20.2329C40.428 20.2329 40.428 20.2329 40.4571 20.2329C40.5008 20.2475 40.5299 20.2475 40.5735 20.262C40.6027 20.262 40.69 20.2183 40.7045 20.2329C40.7482 20.2475 40.7919 20.2766 40.8355 20.2766C40.8938 20.2766 40.9666 20.2766 41.0248 20.2766C41.0539 20.2766 41.1267 20.2475 41.1267 20.2475C41.1558 20.3202 41.214 20.393 41.2722 20.4367C41.3596 20.4803 41.607 20.5968 41.607 20.5968C41.607 20.5968 41.7089 20.6987 41.7671 20.6987C41.8108 20.6987 41.8399 20.6696 41.8399 20.6259C41.8399 20.5822 41.8399 20.5386 41.8545 20.5095C41.869 20.4512 41.8836 20.3785 41.8836 20.3057C41.8836 20.262 41.8981 20.1164 41.7671 20.0873C41.738 20.0873 41.6944 20.0728 41.6944 20.0728C41.6944 20.0728 41.6798 20.1164 41.6798 20.1019C41.6798 20.0873 41.6507 20.0728 41.6361 20.0728C41.6216 20.0728 41.607 20.1019 41.607 20.1164C41.607 20.131 41.6216 20.1892 41.6216 20.1892C41.6216 20.1892 41.5051 20.1019 41.476 20.0728C41.4469 20.0437 41.3159 19.9709 41.3159 19.9709C41.2868 19.9418 41.2577 19.9127 41.2286 19.8836C41.1412 19.8253 41.0393 19.7962 40.9229 19.7817C40.9229 19.6652 40.9083 19.5488 40.8792 19.4323C40.8938 19.3159 40.8938 19.1994 40.8938 19.083C40.8792 19.0539 40.9374 19.0247 40.952 19.0247C41.0539 19.0539 41.1558 19.0539 41.2431 19.0539C41.2431 19.0539 41.3596 19.0247 41.3887 18.9811C41.4032 18.9229 41.3887 18.8501 41.3596 18.8064C41.2722 18.69 41.1703 18.5881 41.0539 18.4862C41.0539 18.4425 41.0684 18.3406 41.0684 18.3406C41.0684 18.3261 41.0684 18.3115 41.0539 18.3115C41.0393 18.2969 40.952 18.1951 40.9374 18.1951C40.9229 18.1805 40.8938 18.1805 40.8647 18.1805C40.8501 18.1805 40.8501 18.2242 40.8647 18.2242C40.8792 18.2387 40.9083 18.2533 40.9083 18.2533L40.9229 18.2969L40.9083 18.3115C40.9083 18.3261 40.9083 18.3552 40.9083 18.3697C40.9229 18.3697 40.9229 18.3843 40.9374 18.3843C40.9374 18.3843 40.9229 18.4279 40.8938 18.4279C40.8792 18.3988 40.8501 18.3261 40.821 18.3552C40.8064 18.3697 40.8064 18.3843 40.8064 18.4134C40.821 18.4571 40.8355 18.5007 40.8647 18.5444C40.8792 18.559 40.8792 18.559 40.8938 18.5735C40.952 18.69 41.0102 18.7627 41.0393 18.8355Z" fill="#BDBBBB"/>
<path d="M42.4949 17.6856C42.4367 17.6856 42.393 17.6419 42.393 17.5983C42.393 17.5837 42.3494 17.5109 42.3203 17.4381C42.1602 17.0451 42.1747 17.1907 42.1893 17.1325C42.2184 17.016 42.3639 17.016 42.4804 17.016H42.5386C42.5968 17.016 42.6405 17.0306 42.6842 17.0742C42.7278 17.1325 42.7569 17.1907 42.7569 17.2635C42.7278 17.3799 42.6842 17.4818 42.6259 17.5983C42.5677 17.6856 42.5095 17.6856 42.4949 17.6856Z" fill="#000706"/>
<path d="M35.9302 15.7642C35.8428 15.6623 35.7846 15.5022 35.8428 15.4731C35.9011 15.444 35.9447 15.4876 35.9884 15.5022C36.0175 15.5167 36.0612 15.5167 36.0612 15.444C36.0612 15.3712 36.0612 15.3421 36.0466 15.2984C36.0321 15.1674 35.9738 15.0364 35.9011 14.9345C35.7992 14.8326 35.5372 14.7162 35.3625 14.8326C35.3043 14.8763 35.2606 14.9199 35.246 14.9927C35.2315 15.0218 35.2606 15.0509 35.2606 15.0801C35.2024 15.2402 35.1005 15.3857 34.984 15.5167C34.984 15.5167 35.3625 15.5604 35.9011 15.9534C35.9447 15.9825 35.8574 16.1863 35.8283 16.1718C35.7992 16.1572 35.8865 16.0116 35.8283 15.9825C35.639 15.8806 35.4498 15.8079 35.246 15.7642C35.2024 15.7496 35.0714 15.837 35.0422 15.7933C34.984 15.7351 34.9112 15.6914 34.8385 15.6623C34.8385 15.6623 34.8676 15.6769 34.8676 15.7351C34.8821 15.8952 34.6056 15.7351 34.8385 15.968C34.9112 16.0408 34.9695 16.0844 35.0277 16.0699C35.1005 16.0699 35.0714 16.0844 35.0714 16.099L35.115 16.2009C35.1296 16.2154 35.1296 16.2154 35.1296 16.2009L35.1441 16.099C35.1441 16.0844 35.1732 16.0699 35.1878 16.0699C35.1878 16.0699 35.5517 16.0844 35.6245 16.0844C35.6973 16.0844 35.6973 16.1135 35.6973 16.1135C35.7118 16.1572 35.7118 16.2009 35.6682 16.23C35.6245 16.2591 35.508 16.1863 35.4353 16.2591C35.3625 16.3173 35.2606 16.3464 35.1732 16.361C35.1587 16.361 35.1296 16.3464 35.1296 16.3319L35.0859 16.23C35.0859 16.2154 35.0714 16.2154 35.0714 16.23L35.0568 16.361C35.0568 16.3755 35.0568 16.4047 35.0422 16.4047C35.0277 16.4047 35.0277 16.3901 35.0131 16.3755C35.0131 16.361 34.9986 16.361 34.984 16.361C34.984 16.361 34.9695 16.361 34.9695 16.3755L34.9404 16.4047C34.9404 16.4192 34.9258 16.4192 34.9112 16.4192C34.9112 16.4192 34.9112 16.4192 34.8967 16.4047L34.8821 16.3901C34.8821 16.3755 34.8676 16.3755 34.853 16.3755C34.853 16.3755 34.853 16.3755 34.8385 16.3901L34.8239 16.4192C34.8093 16.4338 34.7948 16.4338 34.7948 16.4192V16.4047C34.7948 16.3901 34.7802 16.3901 34.7657 16.4047C34.7511 16.4192 34.7511 16.4192 34.7511 16.4047L34.722 16.4338C34.7075 16.4483 34.6783 16.4629 34.6783 16.492C34.6783 16.5211 34.7075 16.5211 34.8239 16.5502C34.9549 16.5793 35.5372 16.3319 35.7264 16.3755C35.9447 16.4192 36.0175 16.2445 36.0321 16.0116C36.0321 15.9971 36.0321 15.9825 36.0321 15.968C35.9884 15.9098 35.9447 15.8515 35.9011 15.7933" fill="#BDBBBB"/>
<path d="M45.2024 20.3639C45.1878 20.393 45.115 20.4076 45.0859 20.4221C45.0422 20.4367 44.984 20.4658 44.9986 20.5095C44.9986 20.5677 44.9986 20.6405 44.9986 20.6987C45.0131 20.7132 45.0714 20.7424 45.0859 20.7132C45.1005 20.6841 45.0859 20.5822 45.1005 20.5095C45.1005 20.4949 45.115 20.4512 45.1296 20.4367C45.1587 20.4221 45.2169 20.393 45.2024 20.3639Z" fill="#BDBBBB"/>
<path d="M39.5546 17.5255C39.6128 17.5255 39.7002 17.5109 39.7293 17.5255C39.773 17.5691 39.7875 17.6128 39.8021 17.671C39.7584 17.7729 39.7002 17.8748 39.642 17.9622C39.6274 17.9767 39.6128 18.0058 39.5837 17.9767C39.5546 17.8457 39.5255 17.7147 39.511 17.5691C39.4964 17.5691 39.4964 17.54 39.5546 17.5255Z" fill="#BDBBBB"/>
<path d="M45.9593 18.9374C45.8719 18.821 45.6682 18.6172 45.5954 18.5153C45.4935 18.3843 44.9986 17.802 44.9986 17.802C44.9986 17.802 44.853 16.9287 44.7948 16.7249C44.7511 16.5939 44.6492 15.6769 43.936 15.1674C43.9797 15.1092 44.4454 15.4731 44.6056 15.7496C44.9112 16.2591 45.0422 17.5983 45.0422 17.5983C45.0422 17.5983 45.2315 15.5459 44.1543 15.1237C43.3829 14.8035 42.9898 14.8472 42.9898 14.8472C42.6696 15.0509 42.5823 15.4731 42.7715 15.7787C42.8297 15.8952 43.543 16.9723 43.5866 17.0742C43.9942 17.8312 45.2606 18.7045 45.508 18.952C45.5226 18.9665 45.7409 19.1121 45.7555 19.2722C45.7555 19.3013 45.4498 19.0975 45.4644 19.1412C45.4935 19.5342 45.4789 19.9418 45.4498 20.3348C45.4498 20.4367 45.4353 20.4367 45.377 20.4658C45.3188 20.4949 45.2606 20.4367 45.2169 20.524C45.1733 20.6114 45.1878 20.7132 45.2897 20.7132C45.3916 20.7132 45.5517 20.7715 45.639 20.393C45.7264 20.0146 45.9447 19.345 46.0175 19.0975C46.0466 19.0393 46.0029 18.9665 45.9593 18.9374Z" fill="#BDBBBB"/>
<path d="M35.1296 14.3086C35.1732 14.4105 35.1878 14.5269 35.2169 14.6288C35.2169 14.7016 35.1878 14.7016 35.1878 14.7016L34.9404 14.818C34.9695 14.7744 34.9986 14.7307 35.0277 14.6725C35.0714 14.556 35.1005 14.4396 35.1296 14.3086Z" fill="#BDBBBB"/>
<path d="M43.9797 20.2183C43.9651 20.2183 43.936 20.2183 43.936 20.2329C43.9214 20.2766 43.9069 20.3348 43.9069 20.393C43.9214 20.4221 43.9651 20.4221 43.9942 20.4076C44.0524 20.393 44.1543 20.3057 44.1252 20.2766C44.067 20.2475 44.0233 20.2329 43.9797 20.2183Z" fill="#BDBBBB"/>
<path d="M43.8778 20.1601C43.8487 20.1601 43.8341 20.1747 43.805 20.1892C43.7759 20.2183 43.7468 20.262 43.7468 20.3202C43.7468 20.3493 43.7904 20.393 43.8195 20.3639C43.8341 20.3348 43.936 20.1601 43.8778 20.1601Z" fill="#BDBBBB"/>
<path d="M34.6056 15.6041C34.5473 15.6914 34.7075 15.7787 34.7511 15.7205C34.7657 15.6769 34.7511 15.6186 34.6929 15.5895C34.6783 15.575 34.6347 15.5895 34.6056 15.6041Z" fill="#BDBBBB"/>
<path d="M37.5168 20.5095C37.5168 20.5095 37.4294 20.6987 37.4149 20.7132C37.4149 20.7278 37.4149 20.7424 37.4294 20.7424C37.4585 20.7424 37.4731 20.7424 37.5022 20.7278C37.5459 20.655 37.5896 20.5822 37.6187 20.4949C37.5896 20.4803 37.5459 20.4803 37.5168 20.5095Z" fill="#BDBBBB"/>
<path d="M44.8239 19.1121C44.8676 18.9374 44.722 18.9229 44.6638 19.1412C44.6492 19.214 44.4309 20 44.4018 20.2038C44.4018 20.2183 44.4018 20.2183 44.4163 20.2038C44.4309 20.2911 44.8094 19.1994 44.8239 19.1121Z" fill="#BDBBBB"/>
<path d="M37.8224 14.8472C37.4294 14.9199 37.0219 14.9491 36.6289 14.9054C36.396 14.8763 36.396 14.7307 36.4251 14.6143C36.2067 14.818 36.1048 14.7453 36.0903 14.7162C36.0903 14.687 36.1631 14.7162 36.2213 14.6579C36.2941 14.556 36.3086 14.425 36.265 14.3086C36.2213 14.2067 36.265 14.2358 36.265 14.2358C36.3523 14.2504 36.4105 14.3086 36.4396 14.3959C36.4687 14.2504 36.2795 14.0757 36.2213 14.1194C36.1194 14.1776 36.0466 14.294 36.0466 14.425C36.0612 14.6143 36.0612 14.7162 35.9884 14.7016C35.5808 14.687 35.115 14.6288 34.853 14.8908C34.853 14.8908 35.1587 14.687 35.4061 14.7016C35.639 14.7307 36.1339 14.7744 36.1631 15.3566C36.1631 15.444 36.1631 15.5459 36.1631 15.6332C36.1631 15.7205 36.0903 15.6623 36.0903 15.6914C36.0903 15.8515 36.2067 15.8224 36.1922 15.968C36.1485 16.5357 35.8865 16.5211 35.8865 16.5211C35.8865 16.5211 36.2067 16.5648 36.3668 16.0408C36.3668 16.3464 36.3377 16.4192 36.2067 16.5357C36.3814 16.5357 36.5561 16.4338 36.6434 16.2882C36.7016 16.4338 36.8035 16.5357 36.9345 16.6084C36.8618 16.4629 36.8472 16.2882 36.8909 16.1281C36.9491 16.492 37.0364 16.6084 37.2111 16.6958C37.0655 16.5648 36.9928 16.361 37.0364 16.1718C37.0655 16.4192 37.3567 16.6376 37.3567 16.6376C37.2839 16.5065 37.2402 16.3755 37.2402 16.23C37.3567 16.492 37.5022 16.5211 37.5022 16.5211C37.3712 16.3755 37.2984 16.2154 37.2693 16.0262C37.2693 16.0262 37.4149 16.2154 37.5313 16.2154C37.444 16.099 37.2984 15.9534 37.2693 15.7496C37.3567 15.8661 37.4294 15.9534 37.5313 15.9534C37.4294 15.8224 37.3567 15.6623 37.3421 15.4876C37.444 15.6186 37.4294 15.6623 37.6187 15.706C37.5313 15.6041 37.5022 15.4731 37.5313 15.3421C37.6041 15.4294 37.7206 15.4876 37.8516 15.5022C37.7788 15.4148 37.7351 15.313 37.7351 15.2111C37.837 15.2693 37.9535 15.2838 38.0699 15.2838C38.0117 15.2256 37.9826 15.1383 37.9971 15.0509C38.099 15.0655 38.2009 15.0655 38.3028 15.0509C38.23 15.0073 38.1718 14.9345 38.1863 14.9491C38.2446 14.9636 38.3319 14.9199 38.4484 14.9054C38.5211 14.8908 38.5939 14.8763 38.6667 14.8908C38.3901 14.7889 38.099 14.7889 37.8224 14.8472Z" fill="#BDBBBB"/>
<path d="M41.6507 17.2052C41.6507 17.2052 41.4178 17.1907 41.3887 17.2635C41.3596 17.3362 41.5051 17.7293 41.5197 17.7875C41.5488 17.8603 41.6361 17.6856 41.6361 17.6856C41.6798 17.5837 41.7235 17.4818 41.7526 17.3799C41.7526 17.3362 41.7526 17.2052 41.6507 17.2052Z" fill="#BDBBBB"/>
<path d="M40.7045 17.2489C40.7045 17.2489 40.4716 17.2344 40.4425 17.3071C40.4571 17.4672 40.4862 17.6274 40.5444 17.7729C40.5735 17.8457 40.6172 17.7438 40.6172 17.7438C40.6463 17.7001 40.8356 17.4527 40.8356 17.4236C40.8356 17.3945 40.8064 17.2489 40.7045 17.2489Z" fill="#BDBBBB"/>
<path d="M42.4076 14.8472C42.3348 14.8472 41.6944 14.9199 41.2722 14.9199C40.9374 14.9199 40.5735 14.9054 40.3843 14.9054C40.3698 14.9054 40.3406 14.9054 40.3261 14.9054C40.0495 14.8908 39.1325 14.8763 39.1325 14.8763C39.0597 14.8617 38.1427 15.0946 38.0117 16.1281C37.9243 16.754 37.968 16.9578 38.1136 17.2635C38.2009 17.4381 38.3756 17.7729 38.361 18.0204C38.361 18.1223 38.1718 17.5691 38.1718 17.6274C38.1718 18.4279 38.1281 19.2431 38.0262 20.0437C37.9535 20.4076 37.8807 20.2329 37.7933 20.3785C37.7788 20.4076 37.5896 20.7424 37.5896 20.7424C37.5896 20.7424 37.6914 20.7278 37.7788 20.7278C37.8661 20.7278 37.9826 20.4221 38.0553 20.4221C38.0699 20.4221 37.968 20.655 37.9826 20.655C38.0553 20.6405 38.1863 20.5968 38.1863 20.6696C38.2155 20.6841 38.2446 20.6696 38.2591 20.6405C38.2882 20.6114 38.3901 20.1456 38.4484 19.8981C38.4629 19.8544 38.5648 19.8836 38.5939 19.8981C38.6521 19.7817 38.5648 19.4032 38.7249 18.8646C38.885 18.3261 39.0597 17.8748 38.9869 17.7438C38.9724 17.7293 38.6958 18.1077 38.6958 18.0786C38.6813 18.0349 39.5983 16.4774 39.4236 15.6769C39.4236 15.6477 39.4091 15.6186 39.4091 15.5895C39.4091 15.5604 39.511 15.6332 39.642 15.6623C39.8166 15.7205 39.9622 15.7496 40.0204 15.9389C40.0786 16.3319 40.2533 16.8705 40.6318 16.9141C40.4716 16.7686 40.2533 15.9971 40.2824 15.6769C40.3843 16.2009 40.7045 16.9432 40.9666 16.9141C40.9083 16.8268 40.69 16.361 40.69 16.0553C40.7773 16.2882 41.0102 16.8413 41.1703 16.8413C41.607 16.8559 41.7235 16.6521 42.0583 16.5793C42.7861 16.4192 42.9753 16.6958 43.0917 16.754C43.0044 16.6667 42.6987 16.1281 42.4949 15.7205C42.3348 15.3857 42.6114 15.0655 43.0772 14.8617C43.1645 14.8326 42.5532 14.8472 42.4076 14.8472Z" fill="#BDBBBB"/>
<path d="M42.5241 17.0888C42.5241 17.0888 42.2912 17.0742 42.262 17.147C42.2475 17.2198 42.4076 17.5109 42.4658 17.5837C42.5095 17.6419 42.5386 17.54 42.5386 17.54C42.5823 17.4527 42.6259 17.3508 42.6551 17.2489C42.6696 17.2198 42.6405 17.0888 42.5241 17.0888Z" fill="#BDBBBB"/>
<path d="M40.1951 16.885C40.0786 16.8413 39.9331 16.6084 39.904 16.5066C39.8603 16.4047 39.7875 16.099 39.8312 15.9971C39.8603 16.1426 39.9185 16.3028 39.9767 16.4483C40.0204 16.5939 40.1077 16.7394 40.1951 16.885Z" fill="#BDBBBB"/>
<path d="M42.6696 19.9563C42.6259 19.9127 42.5532 19.869 42.4949 19.8544C42.4513 19.8544 42.4367 19.8544 42.4367 19.8981C42.4367 19.9418 42.4367 19.9709 42.4367 20.0146C42.4513 20.0873 42.4513 20.0582 42.5095 20.0582C42.5532 20.0582 42.5968 20.0582 42.6405 20.0582C42.6842 20.0582 42.6842 20.0582 42.6842 20.0146C42.6842 19.9854 42.6987 19.9563 42.6696 19.9563Z" fill="#000706"/>
<path d="M35.3479 15.0655C35.3479 15.0655 35.4207 14.9345 35.508 14.9054C35.5808 14.8908 35.639 14.9199 35.7409 14.9927C35.8428 15.0655 35.9011 15.1674 36.0029 15.1383C36.0321 15.1237 35.9302 15.2547 35.8283 15.2256C35.7992 15.2111 35.6536 14.9636 35.508 14.9636C35.4644 14.9927 35.4061 15.0218 35.3479 15.0655Z" fill="#000706"/>
<path d="M35.6245 14.9491C35.5517 14.9199 35.4789 14.9491 35.4353 14.9927C35.4644 14.9054 35.6099 14.9636 35.6682 14.9927C35.7264 15.0364 35.7555 15.0946 35.7846 15.1528C35.7409 15.1092 35.6973 15.0801 35.639 15.0655C35.5517 15.0509 35.5372 15.182 35.5372 15.182L35.4935 15.2402C35.4935 15.2402 35.4935 15.2547 35.5663 15.2547C35.6827 15.2547 35.7992 15.2547 35.9156 15.2256C35.9593 15.1965 35.7555 14.9927 35.6245 14.9491ZM35.6536 15.2256C35.6245 15.2256 35.6099 15.1965 35.6099 15.1674C35.6099 15.1528 35.6245 15.1383 35.6536 15.1237C35.6827 15.1237 35.6973 15.1528 35.6973 15.182C35.6973 15.1965 35.6682 15.2111 35.6536 15.2256Z" fill="#000706"/>
<path d="M36.9054 15.6914C36.9054 15.6914 36.9491 15.837 36.9928 15.8661C37.0364 15.8952 37.1529 15.7205 37.1529 15.7205C37.1238 15.8224 37.0655 15.9098 37.0073 15.9825C36.9345 15.9243 36.92 15.8806 36.9054 15.6914Z" fill="#000706"/>
<path d="M37.0655 15.8515C37.0946 15.9098 37.1238 15.968 37.182 16.0116C37.2257 16.0408 37.3275 15.8806 37.3275 15.8806C37.2984 15.968 37.2402 16.0553 37.1965 16.1426C37.0946 16.0699 37.051 15.9534 37.0655 15.8515Z" fill="#000706"/>
<path d="M36.6871 16.0844C36.6871 16.0844 36.7744 16.23 36.8181 16.2591C36.9054 16.2882 36.9054 16.0699 36.9054 16.0699C36.9054 16.0699 36.9345 16.3028 36.8472 16.3901C36.7744 16.3464 36.7307 16.3173 36.6871 16.0844Z" fill="#000706"/>
<path d="M36.8909 15.9971C36.9054 16.0553 36.9345 16.1135 36.9782 16.1572C37.0219 16.1863 37.1092 15.9534 37.1092 15.9534C37.0946 16.0699 37.0655 16.1863 37.0073 16.3028C36.9345 16.2154 36.8909 16.1135 36.8909 15.9971Z" fill="#000706"/>
<path d="M37.051 16.099C37.0801 16.1572 37.1238 16.2154 37.182 16.2445C37.2257 16.2591 37.2693 16.0699 37.2693 16.0699C37.2693 16.0699 37.2839 16.3028 37.2257 16.361C37.1238 16.3173 37.0655 16.2154 37.051 16.099Z" fill="#000706"/>
<path d="M37.1092 15.5459C37.1092 15.5459 37.182 15.7205 37.2402 15.7496C37.2984 15.7787 37.3712 15.5895 37.3712 15.5895C37.3712 15.5895 37.3275 15.7933 37.2402 15.8661C37.1674 15.8079 37.1529 15.7642 37.1092 15.5459Z" fill="#000706"/>
<path d="M36.9636 15.3857C36.9636 15.3857 37.0073 15.5167 37.051 15.5459C37.0946 15.575 37.1674 15.3857 37.1674 15.3857C37.1529 15.4876 37.1092 15.5895 37.051 15.6914C37.0073 15.6477 36.9928 15.5895 36.9636 15.3857Z" fill="#000706"/>
<path d="M37.2402 15.3421C37.2548 15.4003 37.2839 15.444 37.313 15.4876C37.3567 15.5167 37.4149 15.4148 37.4149 15.4148C37.4149 15.4148 37.3858 15.575 37.3275 15.5895C37.2984 15.5604 37.2693 15.5167 37.2402 15.3421Z" fill="#000706"/>
<path d="M37.444 15.2111C37.444 15.2111 37.4731 15.313 37.5022 15.3421C37.5313 15.3712 37.5896 15.2693 37.5896 15.2693C37.5896 15.3421 37.5459 15.4003 37.5022 15.444C37.444 15.3712 37.4294 15.2984 37.444 15.2111Z" fill="#000706"/>
<path d="M37.6332 15.0509C37.6332 15.0509 37.6623 15.1528 37.6914 15.182C37.7206 15.2111 37.7788 15.1092 37.7788 15.1092C37.7788 15.1092 37.7642 15.2547 37.6914 15.2693C37.6478 15.1965 37.6332 15.1237 37.6332 15.0509Z" fill="#000706"/>
<path d="M36.7307 15.8224C36.7307 15.8224 36.8035 15.9389 36.8326 15.9534C36.8618 15.968 36.9345 15.8224 36.9345 15.8224C36.9345 15.8224 36.9054 15.9971 36.8326 16.0408C36.7744 15.9825 36.7453 15.9098 36.7307 15.8224Z" fill="#000706"/>
<path d="M37.1529 15.2256C37.1529 15.2256 37.182 15.3275 37.2111 15.3566C37.2402 15.3712 37.2984 15.2693 37.2984 15.2693C37.2984 15.2693 37.2839 15.4148 37.2257 15.4585C37.1529 15.4003 37.1238 15.313 37.1529 15.2256Z" fill="#000706"/>
<path d="M38.8559 14.9782C38.8559 14.9782 39.2635 14.818 39.3654 15.4876C39.4091 15.2547 39.3508 14.9491 39.1907 14.8617C39.016 14.7744 38.8559 14.9782 38.8559 14.9782Z" fill="#000706"/>
<path d="M35.6099 14.6725C36.0321 14.7162 36.3668 15.0509 36.4105 15.4876C36.4542 15.3421 36.2941 14.8908 36.1048 14.7744C36.0903 14.7598 36.0029 14.7162 36.0612 14.5852C35.9011 14.556 35.7555 14.5852 35.6099 14.6725Z" fill="#000706"/>
<path d="M43.2519 19.9127C43.2519 19.9127 43.2519 20.2329 43.1791 20.3057H43.2227C43.2519 20.262 43.2664 20.2038 43.2664 20.1601C43.281 20.0873 43.281 20.0146 43.281 19.9418L43.2519 19.9127Z" fill="#000706"/>
<path d="M42.8443 17.7438C42.8443 17.7584 42.8443 17.7729 42.8443 17.7875C42.8443 17.7875 42.8297 17.8166 42.8734 17.8457C42.9025 17.8603 42.9171 17.8748 42.9316 17.9039V17.9185C42.9316 17.933 42.9316 17.9476 42.9316 17.9476C42.9316 17.9476 42.9316 17.9622 42.9171 17.9622C42.9171 17.9622 42.9025 17.9767 42.9171 17.9767C42.9171 17.9913 42.9316 18.0058 42.9462 18.0204C42.9462 18.0204 42.9607 18.0349 42.9462 18.064V18.0786C42.9316 18.1223 42.9462 18.2096 42.9607 18.1951C42.9753 18.1951 42.9753 18.1077 42.9898 18.1077C43.0044 18.0786 43.0044 18.0495 43.0044 18.0204C43.0044 18.0058 43.0044 18.0058 42.9898 18.0058C42.9753 17.9913 42.9607 17.9767 42.9607 17.9767V17.9622L42.9753 17.9476C42.9753 17.933 42.9753 17.9039 42.9753 17.8894C42.9607 17.8603 42.9316 17.8312 42.9025 17.8166C42.888 17.8166 42.8734 17.802 42.8734 17.7875C42.8734 17.7729 42.8734 17.7729 42.8734 17.7729C42.8734 17.7584 42.8734 17.7438 42.8734 17.7293C42.8297 17.671 42.7715 17.6419 42.7133 17.6419L42.6696 17.6856C42.6842 17.6856 42.7569 17.6419 42.8443 17.7438Z" fill="#000706"/>
<path d="M42.5241 17.8603C42.5532 17.8603 42.5677 17.9039 42.5677 17.9039C42.5677 17.9039 42.5677 17.9185 42.5532 17.9039C42.5386 17.8894 42.524 17.8748 42.5095 17.8748C42.4949 17.8748 42.4804 17.8894 42.4804 17.8894C42.4804 17.8894 42.4949 17.8603 42.5241 17.8603Z" fill="#000706"/>
<path d="M42.7278 17.802C42.7424 17.802 42.7569 17.8166 42.7569 17.8457C42.7424 17.8166 42.7278 17.8166 42.7278 17.802C42.6987 17.8166 42.6987 17.8166 42.6842 17.8166C42.6842 17.802 42.6842 17.7875 42.7278 17.802Z" fill="#000706"/>
<path d="M43.1063 19.2431L43.0772 19.1412L43.0626 19.0975L42.8588 18.7336L42.8443 18.7191C42.8297 18.7045 42.8297 18.7045 42.8152 18.69V18.6754C42.888 18.6754 42.9607 18.6608 43.0335 18.6463C43.0917 18.7336 43.1645 18.8064 43.2519 18.8646C43.1936 18.7627 43.1354 18.6754 43.0626 18.5735C43.0772 18.5298 43.0772 18.5007 43.0772 18.4571C43.0626 18.4279 43.0335 18.3988 42.9898 18.3843C42.9898 18.3843 42.9898 18.3697 42.9753 18.3697C42.9607 18.3406 42.9462 18.3261 42.9462 18.3115L43.0335 18.3406H43.0481L43.0772 18.3115L42.9171 18.2533C42.9025 18.2533 42.888 18.2242 42.888 18.1951C42.888 18.1659 43.0044 18.064 42.9753 18.064C42.9316 18.0495 42.8297 18.1659 42.8297 18.1951C42.8297 18.2242 42.8443 18.2533 42.8588 18.2824C42.8443 18.2969 42.8443 18.2969 42.8443 18.3115C42.6405 18.3261 42.5677 18.3988 42.5677 18.4279C42.6405 18.3988 42.7133 18.3697 42.7861 18.3552C42.7424 18.3843 42.8152 18.4571 42.8152 18.4571C42.8006 18.4425 42.7861 18.4425 42.7715 18.4571C42.7278 18.4862 42.7715 18.5444 42.7715 18.559C42.7569 18.559 42.7424 18.559 42.7424 18.5735C42.7278 18.6026 42.7569 18.6463 42.7861 18.6754C42.8152 18.7045 42.7424 18.69 42.5677 18.559C42.5677 18.6754 42.7715 18.7482 42.8443 18.7627C42.8297 18.7482 43.0917 19.2285 43.1063 19.2431ZM42.7715 18.6026C42.7861 18.5881 42.8152 18.6172 42.8297 18.6172C42.8443 18.6026 42.7569 18.5153 42.7861 18.5007C42.8152 18.4862 42.8443 18.5444 42.8588 18.5298C42.8734 18.5153 42.8734 18.5153 42.8588 18.5007C42.8443 18.4862 42.8297 18.4425 42.8297 18.4425C42.8297 18.4425 42.7861 18.3843 42.8152 18.3697C42.8443 18.3552 42.8588 18.3988 42.8734 18.4134C42.8734 18.4134 42.9171 18.5007 42.9316 18.4862C42.9462 18.4716 42.9025 18.3552 42.9025 18.3552C42.9025 18.3552 42.8734 18.3115 42.888 18.3115C42.9025 18.2969 42.9171 18.3115 42.9462 18.3406C42.9753 18.3988 43.0044 18.4425 43.0481 18.4862C43.0481 18.4716 43.0481 18.4425 43.0335 18.4279C43.0481 18.4425 43.0772 18.4425 43.0772 18.4716C43.0772 18.5007 43.0772 18.5298 43.0626 18.559C42.9898 18.6172 42.9025 18.6463 42.8006 18.6463C42.7861 18.6463 42.7424 18.6172 42.7715 18.6026Z" fill="#000706"/>
<path d="M42.2912 19.2285L42.262 19.2431L42.2184 19.2722C42.2184 19.2868 42.393 19.6943 42.5532 19.8253V19.8108C42.4367 19.6361 42.3348 19.4469 42.2912 19.2285Z" fill="#000706"/>
<path d="M42.9171 19.4323C42.8152 19.4469 42.7424 19.7817 42.7424 19.7817C42.7715 19.7525 42.7715 19.8108 42.7715 19.8108C42.7715 19.8108 42.8588 19.5342 42.9171 19.5051C42.9753 19.4905 43.0335 19.476 43.0917 19.4905C43.0481 19.4469 42.9753 19.4323 42.9171 19.4323Z" fill="#000706"/>
<path d="M42.131 18.9083C42.131 18.8064 42.1165 18.69 42.1019 18.5881L42.0874 18.6026L42.0583 18.5881C42.0728 18.7045 42.1019 18.8064 42.131 18.9083Z" fill="#000706"/>
<path d="M42.2038 18.6608L42.2329 18.9229L42.2766 18.8937L42.262 18.7045C42.262 18.7045 42.2766 18.7191 42.2912 18.7045C42.3057 18.69 42.262 18.6608 42.2475 18.6172C42.2475 18.5735 42.2912 18.5444 42.2766 18.5298L42.262 18.5444C42.262 18.5153 42.262 18.4716 42.2766 18.4571C42.2912 18.4279 42.3057 18.3988 42.3203 18.3697C42.262 18.3988 42.2184 18.4425 42.2184 18.5007V18.5881C42.2184 18.6026 42.2038 18.6172 42.2038 18.6317C42.2038 18.6317 42.2038 18.6463 42.2038 18.6608Z" fill="#000706"/>
<path d="M42.1019 19.476C42.0874 19.5488 42.3639 19.7962 42.3639 19.7962L42.4367 19.7671C42.3203 19.6798 42.2038 19.5779 42.1019 19.476Z" fill="#000706"/>
<path d="M42.3203 18.3261C42.393 18.3406 42.4513 18.3843 42.5095 18.4134C42.524 18.3843 42.4076 18.3115 42.3494 18.2969C42.3203 18.2969 42.3057 18.2969 42.3057 18.3115C42.3203 18.3261 42.3203 18.3261 42.3203 18.3261Z" fill="#000706"/>
<path d="M39.8603 19.1849C39.8894 19.1849 39.9476 19.1266 39.9331 19.1121C39.9185 19.1121 39.904 19.1412 39.8603 19.1412C39.8457 19.1412 39.8312 19.1412 39.8021 19.1412C39.8021 19.1558 39.7584 19.1558 39.7584 19.1558V19.1849L39.8021 19.1703C39.8166 19.1849 39.8312 19.1994 39.8603 19.1849Z" fill="#000706"/>
<path d="M40.7773 18.4716C40.8064 18.4425 40.7482 18.3988 40.7482 18.3988C40.7482 18.3988 40.7919 18.4571 40.7628 18.4425C40.7337 18.3988 40.6172 18.3552 40.6027 18.3552C40.6027 18.3552 40.6172 18.3261 40.69 18.3843C40.69 18.3697 40.6609 18.3406 40.6027 18.3406C40.6027 18.3261 40.6027 18.3261 40.5881 18.3261C40.5881 18.3261 40.6027 18.3406 40.5881 18.3406C40.5735 18.3406 40.5735 18.3261 40.5735 18.3115C40.5735 18.2969 40.5444 18.3115 40.559 18.3261C40.5735 18.3406 40.5735 18.3261 40.5735 18.3406C40.559 18.3406 40.559 18.3406 40.5444 18.3406C40.5299 18.3406 40.5153 18.3406 40.5008 18.3406L40.5153 18.3261C40.5444 18.3115 40.5008 18.2824 40.4862 18.3261C40.4862 18.3261 40.4862 18.3406 40.4716 18.3406C40.4571 18.3406 40.4716 18.3115 40.4716 18.3115L40.4571 18.3261C40.4571 18.3406 40.3843 18.3261 40.3698 18.3697C40.4134 18.3261 40.4425 18.3406 40.4425 18.3552C40.4425 18.3697 40.3843 18.3988 40.3552 18.4134C40.3261 18.4279 40.3115 18.4571 40.297 18.4571C40.2824 18.4571 40.2824 18.4425 40.297 18.4134C40.2679 18.4425 40.2679 18.4716 40.2824 18.4862C40.2679 18.5298 40.2679 18.5735 40.297 18.6026C40.3406 18.6463 40.3843 18.69 40.428 18.7191C40.4425 18.7191 40.3115 18.6026 40.3115 18.559C40.297 18.4425 40.4425 18.3552 40.4862 18.3406C40.5008 18.3552 40.5153 18.3552 40.5153 18.3552C40.5444 18.3552 40.559 18.3406 40.559 18.3406C40.6027 18.3406 40.7773 18.3988 40.7628 18.5444C40.7628 18.5881 40.7337 18.6317 40.7482 18.6463C40.7628 18.6608 40.7628 18.6317 40.7773 18.5881C40.7919 18.5735 40.7919 18.5298 40.7773 18.4716Z" fill="#000706"/>
<path d="M39.8749 19.7525C40.0495 19.738 40.3698 20.2766 40.3698 20.2766C40.3843 20.2911 40.3989 20.262 40.3989 20.262C40.3989 20.2475 40.1223 19.6652 39.8749 19.7525Z" fill="#000706"/>
<path d="M40.1223 18.8646C40.0786 18.8646 40.1223 19.3595 40.1223 19.3595L40.166 19.3159C40.166 19.2868 40.1514 19.1412 40.1514 19.1266C40.2388 19.1266 40.3115 19.0975 40.3698 19.0393C40.3261 19.0539 40.2679 19.0539 40.2242 19.0539C40.166 19.0393 40.1514 19.0247 40.1514 19.0102C40.1514 18.9811 40.1369 18.8646 40.1223 18.8646Z" fill="#000706"/>
<path d="M40.0932 19.6361L40.0641 19.6652C40.297 19.7962 40.4425 20.262 40.4571 20.262L40.5299 20.2911C40.5299 20.2911 40.3406 19.738 40.0932 19.6361Z" fill="#000706"/>
<path d="M40.6609 20.262C40.6754 20.2766 40.7337 20.2475 40.7337 20.2475C40.7337 20.1019 40.7919 19.9418 40.9083 19.8399C40.9083 19.8399 40.7045 19.8836 40.6609 20.262Z" fill="#000706"/>
<path d="M41.6507 20.2183L41.607 20.1892C41.6216 20.2329 41.6216 20.2911 41.6216 20.3348V20.4367C41.6361 20.4076 41.6507 20.393 41.6652 20.3785C41.6798 20.3639 41.6798 20.3639 41.6652 20.3202C41.6507 20.3057 41.6361 20.2183 41.6507 20.2183Z" fill="#000706"/>
<path d="M40.9229 18.8501C40.9083 18.8937 40.8938 18.9374 40.8938 18.9811C40.8938 19.0247 40.8647 19.0539 40.821 19.0539H40.8064C40.7628 19.0539 40.7191 19.0393 40.69 19.0247C40.7191 19.083 40.8647 19.1121 40.8938 19.1703C40.8938 19.1994 40.9083 19.214 40.9083 19.2431H40.9374V19.1412L40.9666 19.1266C40.9666 18.9229 40.9374 18.8501 40.9229 18.8501Z" fill="#000706"/>
<path d="M40.3406 18.7627C40.297 18.7627 40.2533 18.7627 40.2096 18.7773L40.1223 18.7919L40.1514 18.8064C40.2096 18.7918 40.2824 18.7918 40.3406 18.7773H40.3698C40.428 18.7918 40.5153 18.821 40.5153 18.8064C40.4716 18.7773 40.428 18.7627 40.3843 18.7482L40.3406 18.7627Z" fill="#000706"/>
<path d="M40.9083 18.7918L40.8792 18.7773H40.7045C40.6463 18.7918 40.5881 18.8064 40.5444 18.8355C40.559 18.8501 40.6463 18.8064 40.7045 18.7918C40.7628 18.7918 40.8356 18.7918 40.8938 18.8064" fill="#000706"/>
<path d="M41.2431 19.083C41.214 19.0539 41.0248 18.821 41.0248 18.821L41.0102 18.8064H40.9811C41.0393 18.8937 41.0976 18.9665 41.1849 19.0393C41.214 19.0684 41.2431 19.083 41.2431 19.083Z" fill="#000706"/>
<path d="M40.0495 20.3348L40.0786 20.3785C40.0932 20.3493 40.1077 20.3202 40.1369 20.2911C40.1805 20.262 40.2242 20.2475 40.2824 20.2329C40.1951 20.2183 40.0932 20.262 40.0495 20.3348Z" fill="#000706"/>
<path d="M39.9913 19.3886C40.0204 19.3886 40.0204 19.3741 40.0204 19.345C40.035 19.3304 40.0495 19.3013 40.0495 19.2868C40.0641 19.345 40.0932 19.4614 40.0641 19.4905L40.035 19.5197L40.0641 19.5051C40.0932 19.4905 40.0932 19.4614 40.0932 19.4323C40.0932 19.4178 40.0495 19.2285 40.0495 19.2285V19.214C40.0495 19.1849 40.035 19.1703 40.035 19.1558C40.0204 19.1266 39.9913 19.1121 39.9622 19.1121C39.9622 19.1121 40.0495 19.1703 40.0495 19.2285C40.035 19.2868 40.0204 19.3013 40.0204 19.3013L40.0059 19.2868V19.3304C40.0059 19.345 39.9913 19.3595 39.9913 19.3595C39.9622 19.3595 39.9331 19.4032 39.8894 19.4032C39.8457 19.4032 39.8312 19.3595 39.8166 19.345C39.8021 19.3304 39.8312 19.3013 39.8312 19.3013C39.8312 19.2868 39.8312 19.2868 39.8166 19.2868C39.8021 19.2868 39.7875 19.3159 39.7875 19.3159C39.7875 19.3159 39.773 19.3741 39.8021 19.3886C39.8603 19.4178 39.8312 19.4178 39.8894 19.4469C39.9476 19.4469 39.9476 19.3886 39.9913 19.3886Z" fill="#000706"/>
</svg>
