<svg width="81" height="40" viewBox="0 0 81 40" fill="none" xmlns="http://www.w3.org/2000/svg">
<rect x="0.666687" width="80" height="40" rx="3" fill="#F6F5F4" fill-opacity="0.7"/>
<path d="M19.7853 15.9479C19.5322 16.201 19.3003 16.4753 19.0942 16.7678L19.0291 16.7466C18.6532 16.6238 18.2637 16.548 17.8712 16.5223C17.753 16.5132 17.312 16.5132 17.168 16.5223C16.7331 16.5511 16.3997 16.6162 16.0208 16.7481C16.0057 16.7541 15.992 16.7587 15.9784 16.7632C15.7647 16.4723 15.5268 16.1995 15.2646 15.9494C16.5224 15.3053 17.994 15.2281 19.3109 15.7357C19.4519 15.7888 19.5898 15.8509 19.7247 15.9176L19.7853 15.9479Z" fill="#F00500"/>
<path d="M22.1314 21.6961C21.9404 22.2402 21.654 22.7449 21.2827 23.1843C21.0811 23.4208 20.8583 23.6375 20.6189 23.8345C20.0582 24.2861 19.4035 24.6089 18.7048 24.7786C17.9319 24.965 17.1257 24.965 16.3528 24.7786C15.6527 24.6089 14.9995 24.2861 14.4387 23.8345C14.1993 23.6375 13.9765 23.4208 13.775 23.1843C12.7065 21.9219 12.3822 20.1882 12.9263 18.6258C13.0293 18.3363 13.1582 18.0575 13.3127 17.7923C13.384 17.671 13.4719 17.5346 13.5143 17.4785C13.6598 18.1044 13.8386 18.6546 13.9053 18.8531C13.9007 18.8637 13.8947 18.8758 13.8886 18.8864C13.5355 19.6017 13.3446 20.2913 13.2991 21.0248C13.2991 21.0339 13.2976 21.0445 13.2976 21.0536C13.2855 21.2733 13.2915 21.3779 13.3279 21.5158C13.4416 21.9477 13.7916 22.4236 14.3402 22.8903C15.2389 23.6541 16.4574 24.2058 17.3803 24.2694C18.3426 24.3346 19.7626 23.7724 20.7083 22.951C20.8568 22.8191 20.9963 22.6797 21.1266 22.5312C21.2205 22.4221 21.36 22.2341 21.3494 22.2341C21.3463 22.2341 21.3494 22.2311 21.3554 22.2281C21.36 22.225 21.3645 22.2205 21.3615 22.2175C21.36 22.216 21.363 22.2114 21.3675 22.2099C21.3721 22.2084 21.3751 22.2053 21.3736 22.2023C21.3721 22.1993 21.3736 22.1963 21.3797 22.1947C21.3842 22.1932 21.3857 22.1887 21.3842 22.1856C21.3827 22.1826 21.3842 22.1796 21.3872 22.1796C21.3903 22.1796 21.3933 22.175 21.3933 22.172C21.3933 22.169 21.3963 22.1644 21.3994 22.1644C21.4024 22.1644 21.4054 22.1614 21.4054 22.1584C21.41 22.1462 21.4176 22.1341 21.4251 22.1235C21.4479 22.0886 21.5388 21.9265 21.5509 21.8992C21.6373 21.7037 21.6919 21.5294 21.7176 21.3552C21.7297 21.2718 21.7373 21.1187 21.7313 21.0824C21.7297 21.0763 21.7297 21.0657 21.7282 21.049C21.7252 21.0187 21.7237 20.9733 21.7207 20.9278C21.7176 20.8596 21.7116 20.7641 21.707 20.7171C21.6418 20.0291 21.4661 19.4669 21.1326 18.8713C21.119 18.8485 21.1069 18.8258 21.0993 18.8076C21.0963 18.8031 21.0948 18.7985 21.0932 18.7955C21.1402 18.6546 21.3327 18.065 21.4858 17.3906L21.4888 17.3937L21.5115 17.424C21.5509 17.477 21.6555 17.6346 21.7025 17.7104C21.9162 18.059 22.0829 18.4333 22.2011 18.8243C22.4754 19.7654 22.4526 20.7687 22.1314 21.6961Z" fill="#F00500"/>
<path d="M20.1643 19.8851C20.1597 19.9094 20.0885 19.9821 20.0173 20.0352C19.8081 20.1882 19.4338 20.3307 19.0534 20.3989C18.8367 20.4383 18.62 20.4444 18.5548 20.4125C18.5124 20.3913 18.5063 20.3747 18.5215 20.3201C18.5533 20.2064 18.6564 20.0822 18.817 19.9655C18.8988 19.9064 19.2307 19.7048 19.3853 19.6199C19.6399 19.4805 19.846 19.3972 19.9854 19.3775C20.0294 19.3714 20.0824 19.3699 20.0991 19.3775C20.1264 19.3881 20.1567 19.4684 20.1688 19.5654C20.1749 19.6169 20.1718 19.8442 20.1643 19.8851Z" fill="#000008"/>
<path d="M16.5938 20.3868C16.5847 20.4049 16.5392 20.4246 16.4877 20.4322C16.4362 20.4398 16.2786 20.4353 16.1892 20.4246C15.8679 20.3822 15.5269 20.2837 15.2784 20.1625C15.1389 20.0943 15.0389 20.0261 14.9647 19.9518L14.9222 19.9079L14.9177 19.8503C14.9101 19.7503 14.9116 19.5926 14.9237 19.5366C14.9313 19.4896 14.948 19.4441 14.9707 19.4032C14.9828 19.3881 14.9828 19.3881 15.0374 19.3881C15.1041 19.3881 15.1602 19.3987 15.2511 19.4275C15.4375 19.485 15.7148 19.6245 16.0528 19.8275C16.3316 19.9942 16.4362 20.0761 16.5165 20.1882C16.5711 20.2579 16.6074 20.3564 16.5938 20.3868Z" fill="#000008"/>
<path d="M18.7396 22.4963C18.7396 22.5009 18.7214 22.5736 18.6987 22.66C18.6759 22.7464 18.6577 22.8161 18.6577 22.8191C18.6411 22.8206 18.6259 22.8221 18.6092 22.8206H18.5607L18.4941 22.9782C18.4577 23.0646 18.4244 23.1449 18.4198 23.1571L18.4107 23.1783L18.3471 23.0752V22.6554L18.3349 22.6585C18.3092 22.6645 18.1258 22.6888 18.0455 22.6964C17.7136 22.7297 17.3802 22.7221 17.0498 22.6751C16.9968 22.6676 16.9513 22.6615 16.9498 22.663C16.9483 22.6645 16.9498 22.7615 16.9528 22.8812L16.9574 23.0964L16.9316 23.1358C16.918 23.1571 16.9043 23.1752 16.9043 23.1768C16.8998 23.1813 16.8846 23.1571 16.8498 23.0874C16.8119 23.0146 16.7846 22.9373 16.7649 22.857L16.7543 22.813L16.7073 22.8161L16.6603 22.8206L16.6482 22.7646C16.6421 22.7342 16.6346 22.6873 16.6315 22.6615L16.627 22.613L16.5876 22.5781C16.5649 22.5584 16.5421 22.5387 16.5376 22.5357C16.53 22.5297 16.527 22.519 16.527 22.51V22.4918L16.9058 22.4948L16.918 22.5342L16.9831 22.5372C17.0195 22.5387 17.1347 22.5418 17.2377 22.5448L17.4272 22.5494L17.4757 22.4736L17.5257 22.3978H17.5893L17.5863 22.0826L17.5029 22.0462C17.2347 21.928 17.0771 21.7931 17.018 21.6295C17.0059 21.5961 17.0059 21.584 17.0028 21.4324C17.0013 21.2824 17.0013 21.2688 17.0119 21.2354C17.0331 21.1597 17.0922 21.1005 17.168 21.0808C17.1938 21.0733 17.262 21.0733 17.6196 21.0733L18.0409 21.0748L18.0879 21.0975C18.144 21.1248 18.1698 21.1445 18.2016 21.1869C18.2379 21.2354 18.2486 21.2733 18.2486 21.3658C18.2486 21.4976 18.2395 21.6113 18.2258 21.6567C18.2061 21.7189 18.1758 21.778 18.1379 21.831C18.0622 21.928 17.9242 22.025 17.7985 22.0689L17.7621 22.0826L17.7651 22.4008L17.8318 22.4069L17.8773 22.4751L17.9212 22.5433H18.1243C18.2364 22.5433 18.3349 22.5448 18.344 22.5463C18.3592 22.5494 18.3622 22.5478 18.3774 22.5221L18.3956 22.4948H18.5698C18.7002 22.4887 18.7396 22.4918 18.7396 22.4963Z" fill="#000008"/>
<path d="M17.9395 22.9313C17.9107 22.948 17.891 22.9555 17.8864 22.9525C17.8819 22.951 17.8607 22.9328 17.8379 22.9161L17.797 22.8828L17.7546 22.9283C17.6621 23.0283 17.6591 23.0328 17.6318 23.0343C17.5894 23.0389 17.5803 23.0313 17.5288 22.954C17.5015 22.9146 17.4803 22.8813 17.4803 22.8813C17.4803 22.8813 17.4606 22.8782 17.4379 22.8767L17.3954 22.8722L17.356 22.954L17.3212 22.9434C17.2939 22.9343 17.2666 22.9237 17.2408 22.9116L17.1954 22.8888V22.8025L18.0016 22.8055L18.0031 22.8464C18.0046 22.8949 18.0062 22.8934 17.9395 22.9313Z" fill="#000008"/>
<path d="M21.7283 21.0824C21.7268 21.0763 21.7268 21.0657 21.7253 21.0491C21.3616 21.0097 20.3235 20.9854 19.3596 21.781C19.3596 21.781 19.049 20.3565 17.5941 20.3565C16.1392 20.3565 15.5997 21.781 15.5997 21.781C14.7844 20.9036 13.6931 20.9672 13.2991 21.0248C13.2991 21.0339 13.2976 21.0445 13.2976 21.0536C13.2855 21.2733 13.2915 21.3779 13.3279 21.5158C13.4416 21.9477 13.7916 22.4236 14.3402 22.8903C15.2389 23.6541 16.4574 24.2058 17.3803 24.2694C18.3426 24.3346 19.7626 23.7724 20.7083 22.951C20.8568 22.8191 20.9963 22.6797 21.1266 22.5312C21.2205 22.4221 21.36 22.2341 21.3494 22.2341C21.3463 22.2341 21.3494 22.2311 21.3554 22.2281C21.36 22.225 21.3645 22.2205 21.3615 22.2175C21.36 22.216 21.363 22.2114 21.3675 22.2099C21.3721 22.2084 21.3751 22.2053 21.3736 22.2023C21.3721 22.1993 21.3736 22.1963 21.3797 22.1947C21.3842 22.1932 21.3857 22.1887 21.3842 22.1856C21.3827 22.1826 21.3842 22.1796 21.3872 22.1796C21.3903 22.1796 21.3933 22.175 21.3933 22.172C21.3933 22.169 21.3963 22.1644 21.3994 22.1644C21.4024 22.1644 21.4054 22.1614 21.4054 22.1584C21.41 22.1462 21.4176 22.1341 21.4251 22.1235C21.4479 22.0886 21.5388 21.9265 21.5509 21.8992C21.6373 21.7037 21.6919 21.5294 21.7176 21.3552C21.7267 21.2718 21.7344 21.1188 21.7283 21.0824ZM17.9395 22.9313C17.9107 22.948 17.891 22.9555 17.8864 22.9525C17.8819 22.951 17.8607 22.9328 17.8379 22.9161L17.797 22.8828L17.7546 22.9283C17.6621 23.0283 17.6591 23.0328 17.6318 23.0343C17.5894 23.0389 17.5803 23.0313 17.5288 22.954C17.5015 22.9146 17.4803 22.8813 17.4803 22.8813C17.4803 22.8813 17.4606 22.8782 17.4379 22.8767L17.3954 22.8722L17.356 22.954L17.3212 22.9434C17.2939 22.9343 17.2666 22.9237 17.2408 22.9116L17.1954 22.8888V22.8025L18.0016 22.8055L18.0031 22.8464C18.0046 22.8949 18.0062 22.8934 17.9395 22.9313ZM18.6974 22.6585C18.6746 22.7449 18.6564 22.8146 18.6564 22.8176C18.6398 22.8191 18.6246 22.8207 18.6079 22.8191H18.5595L18.4943 22.9783C18.4579 23.0647 18.4246 23.145 18.42 23.1571L18.4109 23.1783L18.3473 23.0753V22.6555L18.3352 22.6585C18.3094 22.6646 18.126 22.6888 18.0457 22.6964C17.7138 22.7297 17.3804 22.7222 17.05 22.6752C16.997 22.6676 16.9515 22.6615 16.95 22.6631C16.9485 22.6646 16.95 22.7616 16.953 22.8813L16.9576 23.0965L16.9318 23.1359C16.9182 23.1571 16.9045 23.1753 16.9045 23.1768C16.9 23.1813 16.8848 23.1571 16.85 23.0874C16.8121 23.0146 16.7848 22.9374 16.7651 22.857L16.7545 22.8131L16.7075 22.8161L16.6605 22.8207L16.6484 22.7646C16.6424 22.7343 16.6348 22.6873 16.6318 22.6615L16.6272 22.613L16.5878 22.5782C16.5651 22.5585 16.5423 22.5388 16.5378 22.5358C16.5302 22.5297 16.5272 22.5191 16.5272 22.51V22.4918L16.9061 22.4948L16.9182 22.5342L16.9833 22.5373C17.0197 22.5388 17.1349 22.5418 17.2379 22.5448L17.4274 22.5494L17.4759 22.4736L17.5259 22.3978H17.5895L17.5865 22.0826L17.5032 22.0463C17.2349 21.928 17.0773 21.7932 17.0182 21.6295C17.0061 21.5962 17.0061 21.584 17.003 21.4325C17.0015 21.2824 17.0015 21.2688 17.0121 21.2355C17.0334 21.1597 17.0925 21.1006 17.1682 21.0809C17.194 21.0733 17.2622 21.0733 17.6199 21.0733L18.0412 21.0748L18.0881 21.0976C18.1442 21.1248 18.17 21.1445 18.2018 21.187C18.2382 21.2355 18.2488 21.2734 18.2488 21.3658C18.2488 21.4976 18.2397 21.6113 18.226 21.6568C18.2063 21.7189 18.176 21.778 18.1381 21.8311C18.0624 21.928 17.9245 22.025 17.7987 22.069L17.7623 22.0826L17.7653 22.4009L17.832 22.4069L17.8775 22.4751L17.9214 22.5433H18.1245C18.2367 22.5433 18.3352 22.5448 18.3443 22.5464C18.3594 22.5494 18.3624 22.5479 18.3776 22.5221L18.3958 22.4948H18.5701C18.7049 22.4948 18.7443 22.4964 18.7443 22.5009C18.7398 22.4994 18.7201 22.5736 18.6974 22.6585Z" fill="white"/>
<path d="M21.7159 20.9278C21.7129 20.8596 21.7068 20.7642 21.7023 20.7172C21.6371 20.0291 21.4613 19.4669 21.1279 18.8713C21.1143 18.8486 21.1021 18.8258 21.0946 18.8077C21.0915 18.8031 21.09 18.7986 21.0885 18.7955C21.1355 18.6546 21.3279 18.0651 21.481 17.3907C21.6886 16.4753 21.8205 15.4054 21.4174 15.0841C21.4174 15.0841 20.7202 15.0326 19.7867 15.9479C19.5336 16.201 19.3017 16.4753 19.0956 16.7678L19.0305 16.7466C18.6546 16.6238 18.2651 16.5481 17.8726 16.5223C17.7544 16.5132 17.3134 16.5132 17.1695 16.5223C16.7345 16.5511 16.4011 16.6163 16.0222 16.7481C16.0071 16.7542 15.9934 16.7587 15.9798 16.7633C15.7661 16.4723 15.5282 16.1995 15.266 15.9495C14.2946 15.0296 13.5717 15.0826 13.5717 15.0826C13.1443 15.4145 13.2898 16.5329 13.5111 17.4786C13.6566 18.1045 13.8354 18.6546 13.9021 18.8531C13.8975 18.8637 13.8915 18.8759 13.8854 18.8865C13.5323 19.6018 13.3414 20.2913 13.296 21.0248C13.6915 20.9672 14.781 20.9021 15.5979 21.781C15.5979 21.781 16.1374 20.3565 17.5923 20.3565C19.0471 20.3565 19.3578 21.781 19.3578 21.781C20.3217 20.9854 21.3598 21.0112 21.7235 21.0491C21.722 21.0188 21.7189 20.9733 21.7159 20.9278ZM14.1885 18.2818C14.1885 18.2818 13.6217 16.8648 13.7672 16.0555C13.7914 15.9191 13.8369 15.7994 13.9081 15.7085C13.9081 15.7085 14.5507 15.7721 15.5873 16.9239C15.5873 16.9239 15.3903 17.0194 15.1266 17.2225C15.1266 17.2225 15.1251 17.224 15.1235 17.224C14.8371 17.4437 14.4704 17.7923 14.1885 18.2818ZM16.5936 20.3868C16.5845 20.405 16.539 20.4247 16.4875 20.4323C16.436 20.4398 16.2783 20.4353 16.1889 20.4247C15.8677 20.3822 15.5267 20.2837 15.2781 20.1625C15.1387 20.0943 15.0387 20.0261 14.9644 19.9519L14.922 19.9079L14.9174 19.8503C14.9099 19.7503 14.9114 19.5927 14.9235 19.5366C14.9311 19.4896 14.9478 19.4442 14.9705 19.4032C14.9826 19.3881 14.9826 19.3881 15.0372 19.3881C15.1038 19.3881 15.1599 19.3987 15.2508 19.4275C15.4373 19.4851 15.7146 19.6245 16.0525 19.8276C16.3314 19.9943 16.436 20.0761 16.5163 20.1883C16.5708 20.258 16.6072 20.3565 16.5936 20.3868ZM20.164 19.8852C20.1595 19.9094 20.0883 19.9822 20.017 20.0352C19.8079 20.1883 19.4336 20.3307 19.0532 20.3989C18.8365 20.4383 18.6198 20.4444 18.5546 20.4126C18.5122 20.3913 18.5061 20.3747 18.5213 20.3201C18.5531 20.2065 18.6561 20.0822 18.8168 19.9655C18.8986 19.9064 19.2305 19.7048 19.3851 19.62C19.6397 19.4805 19.8458 19.3972 19.9852 19.3775C20.0292 19.3714 20.0822 19.3699 20.0989 19.3775C20.1262 19.3881 20.1565 19.4684 20.1686 19.5654C20.1747 19.6169 20.1716 19.8443 20.164 19.8852ZM19.9125 17.2225L19.9094 17.2209C19.6548 17.0179 19.4639 16.9224 19.4639 16.9224C20.4656 15.7706 21.0855 15.707 21.0855 15.707C21.1537 15.7994 21.1976 15.9176 21.2219 16.054C21.3628 16.8633 20.8157 18.2818 20.8157 18.2818C20.5869 17.8741 20.2792 17.5134 19.9125 17.2225Z" fill="#FFA409"/>
<path d="M21.2232 16.054C21.105 16.0389 20.546 16.0358 19.9125 17.2225L19.9094 17.2209C19.6548 17.0179 19.4639 16.9224 19.4639 16.9224C20.4656 15.7706 21.0855 15.707 21.0855 15.707C21.1552 15.7994 21.199 15.9176 21.2232 16.054Z" fill="#FF9300"/>
<path d="M20.8174 18.2818C20.5871 17.8726 20.281 17.5134 19.9127 17.2224C20.5462 16.0358 21.1039 16.0388 21.2236 16.054C21.3645 16.8648 20.8174 18.2818 20.8174 18.2818Z" fill="#FF8300"/>
<path d="M21.2462 16.0586C21.2386 16.057 21.2312 16.0555 21.2236 16.054L21.2462 16.0586Z" fill="#FF8300"/>
<path d="M15.5876 16.9224C15.5876 16.9224 15.3906 17.0179 15.1269 17.2209C15.1269 17.2209 15.1254 17.2225 15.1239 17.2225C14.4676 16.0343 13.8902 16.0389 13.766 16.054C13.7902 15.9176 13.8357 15.7979 13.9069 15.707C13.9084 15.707 14.551 15.7706 15.5876 16.9224Z" fill="#FF9300"/>
<path d="M15.1251 17.2224C14.8372 17.4437 14.4704 17.7908 14.1885 18.2818C14.1885 18.2818 13.6217 16.8648 13.7672 16.054C13.89 16.0388 14.4689 16.0358 15.1251 17.2224Z" fill="#FF8300"/>
<path d="M13.7672 16.054C13.7596 16.0555 13.7506 16.057 13.743 16.0586L13.7672 16.054Z" fill="#FF8300"/>
<path d="M19.2839 19.0683C19.2839 19.0683 18.7989 19.0986 18.8595 18.7198C18.9201 18.3409 19.299 18.2954 19.4051 18.3106C19.5112 18.3257 19.9355 18.4773 19.8597 18.7955C19.784 19.1138 19.6779 19.0532 19.6173 19.0683C19.5566 19.0835 19.2839 19.0683 19.2839 19.0683Z" fill="white"/>
<path d="M15.7071 19.0683C15.7071 19.0683 15.2222 19.0986 15.2828 18.7198C15.3434 18.3409 15.7223 18.2954 15.8283 18.3106C15.9344 18.3257 16.3588 18.4773 16.283 18.7955C16.2072 19.1138 16.1011 19.0532 16.0405 19.0683C15.9799 19.0835 15.7071 19.0683 15.7071 19.0683Z" fill="white"/>
<path fill-rule="evenodd" clip-rule="evenodd" d="M54.1201 20.2439C54.1201 21.1021 53.9072 21.762 53.4813 22.2237C53.0555 22.6854 52.4454 22.915 51.6512 22.9125C50.8598 22.9125 50.251 22.6829 49.8247 22.2237C49.3985 21.7645 49.1867 21.1033 49.1891 20.2402C49.1891 19.3784 49.4021 18.7172 49.8266 18.2645C50.2557 17.8116 50.8671 17.5847 51.6608 17.5836C52.4593 17.5836 53.0659 17.8117 53.4872 18.2724C53.9079 18.7288 54.1189 19.386 54.1201 20.2439ZM50.3406 20.2439C50.3406 21.405 50.7813 21.9916 51.6512 21.9916C52.5286 21.9916 52.9668 21.409 52.9658 20.2439C52.9647 19.0788 52.5291 18.4963 51.6589 18.4963C50.7904 18.4963 50.3419 19.0906 50.3419 20.2439H50.3406Z" fill="#000008"/>
<path d="M30.0244 21.4049C30.0244 21.8734 29.8551 22.2394 29.5206 22.5111C29.1859 22.7787 28.7176 22.9125 28.1155 22.9125C27.5645 22.9125 27.0774 22.81 26.6516 22.6016V21.5822C27.0018 21.7355 27.2971 21.8457 27.5374 21.9128C27.7543 21.9723 27.9779 22.0041 28.2028 22.0073C28.6867 22.0073 28.9504 21.8183 28.9504 21.4563C28.9527 21.3586 28.9222 21.263 28.8639 21.1845C28.7931 21.0951 28.708 21.018 28.6119 20.9564C28.5054 20.8816 28.2813 20.7675 27.943 20.6059C27.6236 20.4563 27.388 20.3147 27.2305 20.1771C26.9156 19.9053 26.7109 19.5473 26.7109 19.0632C26.7109 18.6027 26.8645 18.2445 27.1754 17.9807C27.4863 17.7169 27.9153 17.5873 28.4626 17.5873C29.0015 17.5873 29.466 17.7204 30.0013 17.9533L29.647 18.8074C29.425 18.7114 29.1961 18.6324 28.9622 18.5711C28.787 18.5279 28.6073 18.5054 28.4269 18.5042C28.0138 18.5042 27.7854 18.7129 27.7854 19.0278C27.7842 19.1175 27.8073 19.2059 27.8522 19.2836C27.9079 19.3673 27.9804 19.4383 28.0652 19.4923C28.1637 19.5591 28.3958 19.6786 28.7617 19.8503C29.2459 20.0826 29.5765 20.3187 29.7537 20.5508C29.931 20.7829 30.0244 21.0666 30.0244 21.4049Z" fill="#000008"/>
<path d="M35.2087 22.8417H34.1147V20.6059H32.0639V22.8417H30.966V17.6621H32.0639V19.693H34.1147V17.6621H35.2087V22.8417Z" fill="#000008"/>
<path d="M36.5151 17.6621V22.8417H37.6133V17.6621H36.5151Z" fill="#000008"/>
<path fill-rule="evenodd" clip-rule="evenodd" d="M38.916 17.6621H40.5258C41.2618 17.6621 41.793 17.7686 42.1228 17.977C42.4526 18.1854 42.6224 18.52 42.6224 18.9727C42.6224 19.5905 42.3075 20.0108 41.8239 20.0944V20.1298C42.4811 20.2754 42.7526 20.677 42.7526 21.3382C42.7526 21.8103 42.5835 22.1803 42.241 22.4441C41.8984 22.7078 41.4382 22.8417 40.8516 22.8417H38.9152L38.916 17.6621ZM40.014 19.7116H40.6528C41.2471 19.7116 41.4989 19.5423 41.4989 19.1173C41.4989 18.7236 41.2194 18.5623 40.5897 18.5623H40.015L40.014 19.7116ZM40.014 20.5852V21.9354H40.7265C41.3365 21.9354 41.612 21.7031 41.612 21.2309C41.612 20.8018 41.3051 20.5852 40.6911 20.5852H40.014Z" fill="#000008"/>
<path d="M46.2644 22.8417H47.3624V18.5751H48.7675V17.6621H44.8593V18.5751H46.2644V22.8417Z" fill="#000008"/>
<path d="M58.1111 22.8417H59.3586L57.5369 19.9562L59.3434 17.6616H58.1273L56.7222 19.4247L56.2932 20.031V17.6621H55.195V22.8417H56.2932V20.9919L56.7536 20.661L58.1111 22.8417Z" fill="#000008"/>
<path d="M62.9912 22.8417H60.0117V17.6621H62.9912V18.5634H61.1099V19.7007H62.8613V20.5982H61.1099V21.9365H62.9912V22.8417Z" fill="#000008"/>
<path d="M67.2696 22.8417H68.6667V17.6621H67.6789V20.114C67.6789 20.3935 67.6946 20.8697 67.73 21.5428H67.7064L65.4551 17.6621H64.0734V22.8417H65.0535V20.4052C65.0535 20.1101 65.03 19.6142 64.9867 18.9254H65.0181L67.2696 22.8417Z" fill="#000008"/>
</svg>
