<svg width="81" height="40" viewBox="0 0 81 40" fill="none" xmlns="http://www.w3.org/2000/svg">
<rect x="0.666687" width="80" height="40" rx="3" fill="#F6F5F4" fill-opacity="0.7"/>
<path d="M24.1838 21.4135C23.4029 24.5456 20.2305 26.4518 17.098 25.6707C13.9667 24.8898 12.0605 21.7173 12.8418 18.5853C13.6223 15.4528 16.7947 13.5464 19.9263 14.3273C23.0587 15.1082 24.9647 18.2811 24.1838 21.4135Z" fill="#F7931A"/>
<path d="M21.0896 19.1661C21.206 18.3882 20.6137 17.97 19.8037 17.691L20.0665 16.6371L19.425 16.4772L19.1692 17.5033C19.0005 17.4613 18.8273 17.4216 18.6552 17.3824L18.9128 16.3495L18.2717 16.1896L18.0088 17.2431C17.8692 17.2114 17.7322 17.1799 17.5992 17.1469L17.5999 17.1436L16.7152 16.9227L16.5446 17.6078C16.5446 17.6078 17.0205 17.7169 17.0105 17.7237C17.2703 17.7885 17.3172 17.9605 17.3094 18.0968L17.0101 19.2973C17.028 19.3019 17.0512 19.3085 17.0768 19.3187C17.0554 19.3134 17.0326 19.3076 17.009 19.3019L16.5895 20.9837C16.5577 21.0627 16.4772 21.181 16.2955 21.1361C16.3019 21.1454 15.8293 21.0197 15.8293 21.0197L15.5108 21.754L16.3456 21.9621C16.5009 22.001 16.6531 22.0418 16.8029 22.0802L16.5374 23.1461L17.1782 23.3059L17.4411 22.2514C17.6162 22.2989 17.7861 22.3427 17.9523 22.384L17.6903 23.4337L18.3318 23.5935L18.5973 22.5296C19.6912 22.7366 20.5137 22.6531 20.86 21.6638C21.139 20.8672 20.8461 20.4076 20.2705 20.108C20.6897 20.0114 21.0054 19.7356 21.0896 19.1661ZM19.6239 21.2214C19.4257 22.018 18.0844 21.5874 17.6496 21.4794L18.0019 20.0673C18.4367 20.1758 19.8311 20.3907 19.6239 21.2214ZM19.8224 19.1546C19.6415 19.8793 18.5251 19.5111 18.163 19.4208L18.4824 18.1401C18.8445 18.2303 20.0107 18.3988 19.8224 19.1546Z" fill="white"/>
<path d="M29.7995 17.6906C30.2736 17.6906 30.6833 17.7756 31.0275 17.9424C31.3734 18.1108 31.6588 18.3377 31.8877 18.6231C32.1135 18.91 32.2816 19.2453 32.3901 19.6295C32.4979 20.0148 32.552 20.429 32.552 20.8725C32.552 21.5536 32.4272 22.1971 32.1753 22.8037C31.9233 23.4112 31.5815 23.9381 31.1466 24.3876C30.7121 24.8365 30.1991 25.1904 29.6075 25.4519C29.0168 25.7135 28.3746 25.8443 27.685 25.8443C27.5959 25.8443 27.4391 25.8418 27.2177 25.8372C26.9962 25.8326 26.7417 25.8098 26.4567 25.7712C26.1698 25.7312 25.8665 25.672 25.5462 25.5927C25.2261 25.5149 24.9221 25.4058 24.6358 25.2673L27.1959 14.5102L29.4889 14.1548L28.5723 17.9721C28.7685 17.8837 28.9662 17.8152 29.1635 17.7653C29.361 17.7162 29.573 17.6906 29.7995 17.6906ZM27.8761 24.0253C28.2215 24.0253 28.5469 23.9403 28.8525 23.7735C29.1591 23.6065 29.4237 23.381 29.6453 23.1002C29.8669 22.8181 30.0423 22.5004 30.1702 22.1454C30.2981 21.7904 30.3628 21.42 30.3628 21.0347C30.3628 20.5613 30.2837 20.1921 30.126 19.9251C29.9683 19.6593 29.6765 19.5255 29.2528 19.5255C29.114 19.5255 28.9351 19.552 28.7133 19.5993C28.4908 19.6496 28.2916 19.7539 28.1131 19.9109L27.1371 23.9648C27.1959 23.9752 27.248 23.9851 27.2924 23.9944C27.3359 24.0044 27.3839 24.0116 27.4318 24.0165C27.4824 24.0222 27.5403 24.0251 27.6103 24.0251C27.6803 24.0251 27.7678 24.0253 27.8761 24.0253Z" fill="#4D4D4D"/>
<path d="M34.9305 25.6375H32.7404L34.5899 17.8547H36.795L34.9305 25.6375ZM35.9963 16.9064C35.6906 16.9064 35.4134 16.8154 35.1675 16.6331C34.9195 16.4518 34.7968 16.1728 34.7968 15.7968C34.7968 15.59 34.8388 15.396 34.9221 15.2129C35.0067 15.0302 35.1172 14.8729 35.2557 14.7391C35.394 14.6065 35.5543 14.5005 35.7363 14.4207C35.9193 14.3421 36.1141 14.3028 36.3217 14.3028C36.6271 14.3028 36.9028 14.3938 37.1497 14.5762C37.3956 14.7594 37.5193 15.0384 37.5193 15.4124C37.5193 15.62 37.4775 15.8147 37.3934 15.9974C37.3099 16.1801 37.1994 16.3375 37.0609 16.4712C36.9237 16.604 36.762 16.7096 36.5804 16.7887C36.3971 16.8686 36.2031 16.9064 35.9963 16.9064Z" fill="#4D4D4D"/>
<path d="M38.714 15.916L41.0079 15.5606L40.4447 17.8547H42.9014L42.4577 19.6595H40.0158L39.3654 22.3818C39.3055 22.6087 39.2715 22.8207 39.262 23.0176C39.2512 23.2155 39.2762 23.3854 39.3354 23.5285C39.3943 23.6719 39.5 23.7824 39.6535 23.8606C39.8063 23.9401 40.025 23.9801 40.3118 23.9801C40.5481 23.9801 40.7783 23.9577 41.0008 23.9131C41.2221 23.8692 41.4463 23.8082 41.6732 23.7284L41.8365 25.4159C41.5405 25.5244 41.2201 25.6178 40.8747 25.6963C40.5289 25.776 40.1194 25.8143 39.6462 25.8143C38.9658 25.8143 38.4383 25.7133 38.0625 25.5121C37.6872 25.3095 37.4219 25.0327 37.2632 24.6823C37.1066 24.3331 37.0366 23.9306 37.0561 23.4771C37.0764 23.0226 37.1449 22.5448 37.2632 22.0416L38.714 15.916Z" fill="#4D4D4D"/>
<path d="M42.8047 22.5305C42.8047 21.8602 42.9132 21.228 43.1301 20.6362C43.3466 20.0439 43.6585 19.5259 44.0632 19.0814C44.4664 18.639 44.9577 18.2886 45.536 18.0313C46.1115 17.7756 46.7559 17.6466 47.4661 17.6466C47.9107 17.6466 48.3077 17.6886 48.657 17.7728C49.0078 17.8578 49.3252 17.9676 49.6122 18.1053L48.8569 19.8228C48.6596 19.7428 48.4548 19.6722 48.243 19.6083C48.0311 19.5431 47.7723 19.5116 47.4663 19.5116C46.7353 19.5116 46.1574 19.7636 45.7273 20.2659C45.2988 20.7685 45.0831 21.4451 45.0831 22.2937C45.0831 22.7967 45.1916 23.2034 45.4094 23.5146C45.6261 23.8257 46.0264 23.9805 46.6076 23.9805C46.8944 23.9805 47.1712 23.9505 47.4363 23.8921C47.7035 23.8329 47.9393 23.7583 48.1471 23.6703L48.3106 25.4308C48.0336 25.5383 47.7281 25.6353 47.393 25.7203C47.0572 25.8023 46.6575 25.8449 46.1939 25.8449C45.582 25.8449 45.0641 25.7553 44.6404 25.579C44.2165 25.4 43.8662 25.1623 43.5903 24.8612C43.313 24.5593 43.1138 24.2069 42.9907 23.8024C42.8675 23.3982 42.8047 22.9736 42.8047 22.5305Z" fill="#4D4D4D"/>
<path d="M52.5335 25.8445C52.0108 25.8445 51.5568 25.7648 51.1716 25.6072C50.7876 25.4495 50.4695 25.2282 50.2179 24.9414C49.9659 24.656 49.7774 24.3178 49.6482 23.9281C49.519 23.5385 49.4569 23.1072 49.4569 22.6345C49.4569 22.0416 49.5521 21.4489 49.7445 20.8578C49.936 20.2655 50.2201 19.7333 50.5961 19.2602C50.9692 18.7865 51.4294 18.3991 51.9714 18.0971C52.5127 17.7971 53.1354 17.6462 53.8348 17.6462C54.348 17.6462 54.7997 17.726 55.1901 17.8837C55.5787 18.041 55.8988 18.2641 56.1519 18.5495C56.4022 18.8364 56.5924 19.1731 56.7203 19.5634C56.8491 19.9522 56.9127 20.3846 56.9127 20.8577C56.9127 21.4487 56.8188 22.0414 56.6324 22.6343C56.4459 23.2243 56.1691 23.7578 55.8037 24.2319C55.439 24.7049 54.9829 25.0921 54.4352 25.3928C53.8881 25.6936 53.2538 25.8445 52.5335 25.8445ZM53.6282 19.5115C53.3035 19.5115 53.0164 19.6057 52.7707 19.7919C52.524 19.9803 52.3169 20.2171 52.1499 20.5027C51.981 20.7895 51.8559 21.1023 51.7713 21.4423C51.6874 21.7831 51.6463 22.1052 51.6463 22.4112C51.6463 22.9051 51.726 23.2897 51.8826 23.5665C52.0413 23.8418 52.3265 23.9803 52.7411 23.9803C53.0669 23.9803 53.3524 23.8868 53.5996 23.6986C53.8448 23.5117 54.0522 23.2747 54.2205 22.9886C54.3882 22.7032 54.5145 22.3895 54.5991 22.0489C54.6818 21.7093 54.724 21.3853 54.724 21.0798C54.724 20.5872 54.6447 20.2017 54.4867 19.9253C54.3288 19.65 54.0424 19.5115 53.6282 19.5115Z" fill="#4D4D4D"/>
<path d="M59.3 25.6375H57.108L58.9576 17.8547H61.1638L59.3 25.6375ZM60.3641 16.9064C60.0586 16.9064 59.7816 16.8154 59.536 16.6331C59.2894 16.4518 59.1655 16.1728 59.1655 15.7968C59.1655 15.59 59.2081 15.396 59.2916 15.2129C59.3751 15.0302 59.4863 14.8729 59.6248 14.7391C59.7624 14.6065 59.9241 14.5005 60.1057 14.4207C60.2877 14.3421 60.4825 14.3028 60.6893 14.3028C60.9955 14.3028 61.2721 14.3938 61.5184 14.5762C61.7649 14.7594 61.8893 15.0384 61.8893 15.4124C61.8893 15.62 61.8451 15.8147 61.7623 15.9974C61.6796 16.1801 61.5683 16.3375 61.4304 16.4712C61.2915 16.604 61.1318 16.7096 60.9498 16.7887C60.7664 16.8686 60.572 16.9064 60.3641 16.9064Z" fill="#4D4D4D"/>
<path d="M62.7413 18.2093C62.9075 18.1607 63.0932 18.1022 63.2951 18.0387C63.4977 17.9751 63.7241 17.9159 63.9769 17.8625C64.2271 17.8075 64.5093 17.7629 64.8198 17.7284C65.1302 17.6932 65.4839 17.676 65.8769 17.676C67.032 17.676 67.8283 18.0123 68.2678 18.6831C68.7071 19.3538 68.7831 20.2717 68.4981 21.4352L67.4906 25.6375H65.286L66.2624 21.5236C66.322 21.2667 66.3688 21.0184 66.4033 20.7758C66.4382 20.5354 66.4362 20.3234 66.3954 20.14C66.3565 19.9587 66.2648 19.8104 66.1225 19.6955C65.978 19.5824 65.7596 19.5255 65.4635 19.5255C65.1779 19.5255 64.8874 19.5562 64.5908 19.6154L63.1553 25.6373H60.9498L62.7413 18.2093Z" fill="#4D4D4D"/>
</svg>
