<svg width="81" height="40" viewBox="0 0 81 40" fill="none" xmlns="http://www.w3.org/2000/svg">
<rect x="0.666687" width="80" height="40" rx="3" fill="#F6F5F4" fill-opacity="0.7"/>
<path d="M38.3269 20.8228V23.0178C38.3256 23.0628 38.3072 23.1056 38.2753 23.1374C38.2435 23.1692 38.2007 23.1877 38.1557 23.189C38.133 23.1896 38.1105 23.1857 38.0894 23.1773C38.0683 23.1689 38.0492 23.1563 38.0332 23.1403C38.0171 23.1242 38.0046 23.1051 37.9962 23.084C37.9878 23.063 37.9838 23.0404 37.9845 23.0178V20.8228C37.9845 20.0808 37.5642 19.344 36.7391 19.344C35.6806 19.344 35.2239 20.2676 35.2862 21.2172C35.2862 21.2318 35.2895 21.2726 35.2924 21.3083C35.2946 21.336 35.2966 21.3609 35.2966 21.3677V23.0126C35.2965 23.0564 35.2808 23.0988 35.2522 23.1321C35.2237 23.1654 35.1842 23.1874 35.1409 23.1942C35.1167 23.1974 35.0921 23.1954 35.0687 23.1882C35.0454 23.181 35.0239 23.1689 35.0056 23.1526C34.9874 23.1364 34.9729 23.1164 34.9631 23.094C34.9533 23.0716 34.9485 23.0474 34.9489 23.0229V15.8051C34.9493 15.7598 34.9675 15.7165 34.9995 15.6845C35.0316 15.6525 35.0749 15.6343 35.1202 15.6339C35.1652 15.6352 35.208 15.6537 35.2398 15.6855C35.2716 15.7173 35.2901 15.7601 35.2914 15.8051V19.8836C35.5872 19.3544 36.1164 18.9963 36.7339 18.9963C37.751 18.9963 38.3269 19.8836 38.3269 20.8228Z" fill="#393939"/>
<path d="M32.8165 19.1206C32.7847 19.0888 32.7419 19.0703 32.6969 19.069H31.7785V17.7354C31.7789 17.711 31.7741 17.6868 31.7643 17.6644C31.7545 17.642 31.74 17.622 31.7217 17.6058C31.7035 17.5895 31.682 17.5774 31.6586 17.5702C31.6353 17.563 31.6107 17.561 31.5865 17.5642C31.5431 17.571 31.5037 17.593 31.4751 17.6263C31.4466 17.6596 31.4309 17.702 31.4308 17.7458V19.069H30.5435C30.4982 19.0694 30.4549 19.0876 30.4229 19.1196C30.3908 19.1516 30.3727 19.1949 30.3723 19.2402C30.3716 19.2629 30.3756 19.2854 30.384 19.3065C30.3923 19.3276 30.4049 19.3467 30.421 19.3627C30.437 19.3788 30.4561 19.3914 30.4772 19.3997C30.4983 19.4081 30.5208 19.4121 30.5435 19.4115H31.4308V23.0385C31.4321 23.0835 31.4506 23.1263 31.4824 23.1582C31.5142 23.19 31.557 23.2085 31.602 23.2098C31.6473 23.2094 31.6906 23.1912 31.7227 23.1592C31.7547 23.1271 31.7729 23.0838 31.7733 23.0385V19.4115H32.6969C32.7196 19.4121 32.7421 19.4081 32.7632 19.3997C32.7843 19.3914 32.8034 19.3788 32.8194 19.3627C32.8354 19.3467 32.848 19.3276 32.8564 19.3065C32.8648 19.2854 32.8688 19.2629 32.8681 19.2402C32.8668 19.1952 32.8484 19.1524 32.8165 19.1206Z" fill="#393939"/>
<path fill-rule="evenodd" clip-rule="evenodd" d="M28.4587 21.248C28.4937 21.2139 28.5138 21.1674 28.5146 21.1186C28.5094 20.0134 27.6792 18.986 26.5169 18.986C25.3545 18.986 24.5295 20.0238 24.5295 21.129C24.5295 22.2342 25.3597 23.272 26.5169 23.272C27.1914 23.272 27.8815 22.9763 28.2292 22.3743C28.2463 22.3481 28.2553 22.3174 28.2551 22.2861C28.2558 22.2635 28.2518 22.2409 28.2434 22.2199C28.2351 22.1988 28.2225 22.1797 28.2064 22.1636C28.1904 22.1476 28.1713 22.135 28.1502 22.1266C28.1291 22.1182 28.1066 22.1143 28.0839 22.1149C28.0535 22.1162 28.0239 22.1249 27.9977 22.1402C27.9714 22.1556 27.9494 22.1772 27.9334 22.2031C27.591 22.6961 27.1343 22.9296 26.5169 22.9296C25.614 22.9296 24.9757 22.1512 24.8875 21.3002H28.3278C28.3766 21.3008 28.4237 21.282 28.4587 21.248ZM26.5169 19.3284C27.4197 19.3284 28.0735 20.1068 28.1462 20.9578H24.8875C24.9757 20.1068 25.614 19.3284 26.5169 19.3284Z" fill="#393939"/>
<path fill-rule="evenodd" clip-rule="evenodd" d="M44.451 21.248C44.486 21.2139 44.5061 21.1674 44.5069 21.1186C44.5017 20.0134 43.6611 18.986 42.5092 18.986C41.3469 18.986 40.5218 20.0238 40.5218 21.129C40.5218 22.2342 41.3521 23.272 42.5092 23.272C43.1838 23.272 43.8739 22.9763 44.2215 22.3743C44.2386 22.3481 44.2476 22.3174 44.2475 22.2861C44.2481 22.2635 44.2441 22.2409 44.2358 22.2199C44.2274 22.1988 44.2148 22.1797 44.1988 22.1636C44.1827 22.1476 44.1636 22.135 44.1425 22.1266C44.1215 22.1182 44.0989 22.1143 44.0763 22.1149C44.0459 22.1162 44.0162 22.1249 43.99 22.1402C43.9638 22.1556 43.9417 22.1772 43.9258 22.2031C43.5833 22.6961 43.1267 22.9296 42.5092 22.9296C41.6063 22.9296 40.9681 22.1512 40.8799 21.3002H44.3201C44.3689 21.3008 44.416 21.282 44.451 21.248ZM42.504 19.3284C43.4069 19.3284 44.0607 20.1068 44.1333 20.9578H40.8747C40.9629 20.1068 41.6011 19.3284 42.504 19.3284Z" fill="#393939"/>
<path d="M48.7359 19.2298C48.7392 19.2759 48.7242 19.3214 48.694 19.3564C48.6639 19.3914 48.6211 19.4131 48.5751 19.4166C47.5632 19.5671 47.1066 20.3922 47.1066 21.3521V22.997C47.1065 23.0409 47.0908 23.0832 47.0623 23.1165C47.0337 23.1498 46.9943 23.1718 46.9509 23.1786C46.9267 23.1818 46.9021 23.1798 46.8788 23.1726C46.8554 23.1654 46.8339 23.1533 46.8157 23.137C46.7974 23.1208 46.7829 23.1008 46.7731 23.0784C46.7634 23.056 46.7585 23.0318 46.7589 23.0074V19.2558C46.759 19.2119 46.7748 19.1696 46.8033 19.1363C46.8318 19.103 46.8713 19.081 46.9146 19.0742C46.9388 19.071 46.9635 19.073 46.9868 19.0802C47.0101 19.0873 47.0317 19.0995 47.0499 19.1157C47.0681 19.132 47.0826 19.152 47.0924 19.1744C47.1022 19.1968 47.107 19.221 47.1066 19.2454V20.0082C47.392 19.5256 47.9576 19.069 48.5491 19.069C48.6373 19.069 48.7359 19.1312 48.7359 19.2298Z" fill="#393939"/>
<path fill-rule="evenodd" clip-rule="evenodd" d="M54.3359 21.248C54.3709 21.2139 54.3911 21.1674 54.3919 21.1186C54.3867 20.0134 53.5565 18.986 52.3941 18.986C51.2318 18.986 50.4068 20.0238 50.4068 21.129C50.4068 22.2342 51.237 23.272 52.3941 23.272C53.0687 23.272 53.7588 22.9763 54.1065 22.3743C54.1235 22.3481 54.1325 22.3174 54.1324 22.2861C54.1331 22.2635 54.1291 22.2409 54.1207 22.2199C54.1123 22.1988 54.0997 22.1797 54.0837 22.1636C54.0677 22.1476 54.0485 22.135 54.0275 22.1266C54.0064 22.1182 53.9839 22.1143 53.9612 22.1149C53.9308 22.1162 53.9012 22.1249 53.875 22.1402C53.8487 22.1556 53.8267 22.1772 53.8107 22.2031C53.4682 22.6961 53.0116 22.9296 52.3941 22.9296C51.4913 22.9296 50.853 22.1512 50.7648 21.3002H54.2051C54.2539 21.3008 54.3009 21.282 54.3359 21.248ZM52.3941 19.3284C53.297 19.3284 53.9508 20.1068 54.0235 20.9578H50.7648C50.853 20.1068 51.4913 19.3284 52.3941 19.3284Z" fill="#393939"/>
<path d="M59.9544 19.2713V23.0385C59.9531 23.0835 59.9347 23.1263 59.9028 23.1582C59.871 23.19 59.8282 23.2084 59.7832 23.2098C59.7605 23.2104 59.738 23.2064 59.7169 23.198C59.6959 23.1897 59.6767 23.1771 59.6607 23.161C59.6447 23.145 59.6321 23.1259 59.6237 23.1048C59.6153 23.0837 59.6113 23.0612 59.612 23.0385V22.3224C59.3266 22.888 58.8233 23.298 58.1798 23.298C57.1576 23.298 56.592 22.4107 56.592 21.4715V19.2662C56.5924 19.2209 56.6106 19.1775 56.6426 19.1455C56.6746 19.1135 56.718 19.0953 56.7632 19.0949C56.8082 19.0962 56.851 19.1147 56.8829 19.1465C56.9147 19.1784 56.9332 19.2212 56.9345 19.2662V21.4715C56.9345 22.2135 57.3548 22.9503 58.1798 22.9503C59.337 22.9503 59.612 21.8658 59.612 20.6672V19.261C59.6124 19.2332 59.6194 19.2059 59.6325 19.1815C59.6455 19.157 59.6643 19.136 59.6872 19.1202C59.71 19.1045 59.7363 19.0944 59.7639 19.0909C59.7914 19.0874 59.8194 19.0906 59.8455 19.1001C59.8781 19.1153 59.9057 19.1394 59.925 19.1698C59.9443 19.2001 59.9545 19.2354 59.9544 19.2713Z" fill="#393939"/>
<path d="M68.6667 23.0126V20.8073C68.6667 19.8733 68.0907 18.9963 67.0789 18.9963C66.368 18.9963 65.8128 19.4478 65.5274 20.0912C65.3043 19.4426 64.7594 18.9963 64.0589 18.9963C63.4414 18.9963 62.9121 19.344 62.6164 19.8733V19.2454C62.6168 19.221 62.612 19.1967 62.6022 19.1744C62.5924 19.152 62.5779 19.132 62.5597 19.1157C62.5414 19.0995 62.5199 19.0873 62.4966 19.0802C62.4732 19.073 62.4486 19.0709 62.4244 19.0742C62.3811 19.081 62.3416 19.103 62.3131 19.1363C62.2845 19.1696 62.2688 19.2119 62.2687 19.2558V23.0178C62.2683 23.0422 62.2731 23.0664 62.2829 23.0888C62.2927 23.1112 62.3072 23.1312 62.3254 23.1474C62.3437 23.1637 62.3652 23.1758 62.3885 23.183C62.4119 23.1902 62.4365 23.1922 62.4607 23.189C62.504 23.1822 62.5435 23.1602 62.572 23.1269C62.6006 23.0936 62.6163 23.0512 62.6164 23.0074V21.3521C62.6234 21.3415 62.6209 21.3165 62.6185 21.2934C62.6174 21.2826 62.6164 21.2722 62.6164 21.2639C62.5801 20.1638 63.0107 19.3388 64.0589 19.3388C64.8839 19.3388 65.3043 20.0652 65.3043 20.8073V23.0126C65.3036 23.0352 65.3076 23.0578 65.316 23.0789C65.3244 23.0999 65.3369 23.1191 65.353 23.1351C65.369 23.1511 65.3881 23.1637 65.4092 23.1721C65.4303 23.1805 65.4528 23.1844 65.4755 23.1838C65.5205 23.1825 65.5633 23.164 65.5951 23.1322C65.627 23.1004 65.6454 23.0576 65.6467 23.0126V21.3106C65.6467 20.4492 66.0411 19.3388 67.0789 19.3388C67.9039 19.3388 68.3242 20.0652 68.3242 20.8073V23.0126C68.3236 23.0352 68.3276 23.0578 68.3359 23.0789C68.3443 23.0999 68.3569 23.1191 68.3729 23.1351C68.389 23.1511 68.4081 23.1637 68.4292 23.1721C68.4502 23.1805 68.4728 23.1844 68.4954 23.1838C68.5404 23.1825 68.5833 23.164 68.6151 23.1322C68.6469 23.1004 68.6654 23.0576 68.6667 23.0126Z" fill="#393939"/>
<path d="M16.9949 22.6724C16.9529 22.6866 16.929 22.6501 16.9005 22.6333C15.5017 21.8078 14.1044 20.9816 12.7087 20.1549C12.6951 20.1481 12.6811 20.1423 12.6667 20.1377V20.1193L12.6914 20.105C12.7266 20.0958 12.7612 20.0845 12.7951 20.0714L16.0914 18.5716C16.3851 18.4377 16.6789 18.306 16.9726 18.1734H16.9936C16.9936 18.2153 16.9936 18.2527 16.9936 18.2926C16.9947 19.7526 16.9952 21.2126 16.9949 22.6724Z" fill="#343535"/>
<path d="M16.997 18.1744H16.976C16.976 18.1324 16.9802 18.0905 16.9802 18.0464C16.9802 16.4064 16.9802 14.7663 16.9802 13.1261C16.9754 13.084 16.9782 13.0413 16.9886 13.0002H16.9974C17.1699 13.2549 17.3201 13.5235 17.4787 13.7866C18.7354 15.8711 19.9914 17.9553 21.2467 20.0393C21.2589 20.0598 21.2685 20.0812 21.2794 20.1039C21.2439 20.0963 21.2089 20.0861 21.1749 20.0733C20.9445 19.9692 20.7133 19.8634 20.485 19.7573C20.1275 19.5936 19.7698 19.4302 19.412 19.2671L17.6881 18.4862C17.4586 18.3804 17.2278 18.2776 16.997 18.1744Z" fill="#2F3030"/>
<path d="M16.99 12.998C16.9796 13.0392 16.9767 13.0818 16.9816 13.1239C16.9816 14.7639 16.9816 16.404 16.9816 18.0442C16.9816 18.0862 16.979 18.1282 16.9774 18.1722C16.6836 18.3048 16.3899 18.4366 16.0961 18.5705L12.7998 20.0703C12.7659 20.0834 12.7313 20.0946 12.6962 20.1038C12.7914 19.9058 12.9152 19.7262 13.0281 19.5365C14.336 17.3625 15.6449 15.1888 16.9547 13.0157C16.9634 13.0036 16.9727 12.9921 16.9828 12.9813L16.99 12.998Z" fill="#828384"/>
<path d="M16.997 18.1744C17.2278 18.2776 17.4586 18.3805 17.689 18.4845L19.4129 19.2655C19.771 19.4283 20.1287 19.5917 20.4859 19.7556C20.7159 19.861 20.9475 19.9676 21.1758 20.0716C21.2099 20.0844 21.2448 20.0947 21.2803 20.1023C21.3223 20.1547 21.2602 20.1568 21.2413 20.1681C20.8833 20.3822 20.5237 20.5932 20.1649 20.8056C19.1351 21.4149 18.1056 22.0241 17.0763 22.6331C17.0503 22.6482 17.0222 22.6593 16.9949 22.6724C16.9949 21.2128 16.9949 19.7534 16.9949 18.2936C16.9954 18.2537 16.9965 18.2143 16.997 18.1744Z" fill="#131313"/>
<path d="M16.9801 23.5014L19.6763 21.9122C20.1911 21.6084 20.7056 21.3043 21.2198 20.9999L21.2664 20.9743C21.271 21.0163 21.242 21.0386 21.2244 21.0629C20.0494 22.7194 18.8744 24.3753 17.6994 26.0306C17.477 26.3445 17.255 26.6601 17.0305 26.9714C17.0187 26.9878 17.0007 27.0646 16.9646 26.9832C16.9931 26.9589 16.9806 26.9261 16.9806 26.8993C16.9808 25.7662 16.9807 24.6336 16.9801 23.5014Z" fill="#2F3030"/>
<path d="M16.9799 23.5016C16.9799 24.6338 16.9799 25.7657 16.9799 26.8974C16.9799 26.9263 16.9925 26.9591 16.964 26.9813C16.9039 26.9452 16.8779 26.8806 16.8381 26.8273C15.4756 24.9081 14.1139 22.9887 12.7528 21.069C12.7356 21.0446 12.7197 21.0186 12.7021 20.9918C12.7373 20.9712 12.7562 20.9993 12.7768 21.0115C14.1546 21.825 15.5321 22.6393 16.9094 23.4542C16.935 23.4702 16.9568 23.4865 16.9799 23.5016Z" fill="#828384"/>
<path d="M16.9903 12.998L16.9802 12.9825C16.9987 12.9707 16.9961 12.9879 16.9991 12.9968L16.9903 12.998Z" fill="#393939"/>
</svg>
